<svg width="14" height="12" viewBox="0 0 14 12" fill="none" xmlns="http://www.w3.org/2000/svg">
<path d="M11.9619 4.81187V1.6285C11.9612 1.04275 11.4866 0.568075 10.9008 0.567383H3.47308C2.88734 0.568075 2.41267 1.04275 2.41197 1.6285V4.81187C1.53335 4.81289 0.821336 5.52491 0.820312 6.40355L0.820313 10.648C0.820313 10.8436 0.927987 11.0234 1.10048 11.1157C1.27302 11.2081 1.48233 11.198 1.64513 11.0895L2.41197 10.5783V11.1786H3.47308V10.1175H10.9008V11.1786H11.9619V10.5783L12.7287 11.0895C12.8915 11.198 13.1009 11.2081 13.2734 11.1158C13.4459 11.0235 13.5536 10.8437 13.5536 10.648V6.40355C13.5526 5.52491 12.8406 4.81289 11.9619 4.81187ZM3.47308 1.6285H10.9008V4.81187H9.83973V3.22018C9.83903 2.63443 9.36436 2.15976 8.77862 2.15906H5.5953C5.00955 2.15976 4.53488 2.63443 4.53419 3.22018V4.81187H3.47308V1.6285ZM8.77862 4.81187H5.5953V3.22018H8.77862V4.81187ZM12.4925 9.65668L11.7256 9.14549C11.6385 9.08735 11.5361 9.05633 11.4314 9.05634H2.94253C2.83778 9.05634 2.73537 9.08736 2.64821 9.14547L1.88142 9.65668V6.40355C1.88175 6.11066 2.11909 5.87332 2.41197 5.87298H11.9619C12.2548 5.87332 12.4922 6.11066 12.4925 6.40355V9.65668Z" fill="#363C45" stroke="white" stroke-width="0.1"/>
</svg>
