<svg width="12" height="12" viewBox="0 0 12 12" fill="none" xmlns="http://www.w3.org/2000/svg">
<path d="M1.76911 2.46429H4.91197V1.28571C4.91236 1.0775 4.99526 0.877536 5.14258 0.730214C5.28951 0.583286 5.48947 0.500393 5.69768 0.5H11.1977C11.4059 0.500393 11.6059 0.582893 11.7532 0.730214C11.9005 0.877536 11.983 1.0775 11.9834 1.28571V10.7143C11.983 10.9225 11.9001 11.1225 11.7532 11.2694C11.6059 11.4167 11.4059 11.4996 11.1977 11.5H1.76911C1.5609 11.4996 1.36133 11.4167 1.21401 11.2694C1.06668 11.1221 0.983791 10.9225 0.983398 10.7143V3.25C0.983791 3.04179 1.06668 2.84182 1.21401 2.6945C1.36093 2.54757 1.5609 2.46468 1.76911 2.46429ZM7.66197 10.7143H9.2334V8.75H7.66197V10.7143ZM5.69768 10.7143H6.87626V8.75C6.87665 8.54179 6.95954 8.34182 7.10686 8.19489C7.25379 8.04757 7.45376 7.96468 7.66197 7.96429H9.2334C9.44161 7.96468 9.64158 8.04757 9.7889 8.19489C9.93583 8.34182 10.0187 8.54179 10.0191 8.75V10.7143H11.1977L11.1981 1.28571H5.69768V10.7143ZM1.76911 10.7143H4.91197V3.25H1.76911V10.7143ZM6.87626 6C6.87626 6.07779 6.89943 6.15361 6.94265 6.21843C6.98547 6.28286 7.04715 6.33314 7.11865 6.363C7.19054 6.39286 7.26951 6.40032 7.34572 6.38539C7.42193 6.37007 7.49186 6.33275 7.54686 6.27775C7.60186 6.22275 7.63918 6.15282 7.65451 6.07661C7.66943 6.00039 7.66197 5.92143 7.63211 5.84954C7.60226 5.77804 7.55197 5.71636 7.48754 5.67354C7.42272 5.63032 7.3469 5.60714 7.26911 5.60714C7.16501 5.60714 7.06483 5.64839 6.99136 5.72225C6.91751 5.79571 6.87626 5.89589 6.87626 6ZM6.87626 4.42857C6.87626 4.50636 6.89943 4.58218 6.94265 4.647C6.98547 4.71143 7.04715 4.76171 7.11865 4.79157C7.19054 4.82143 7.26951 4.82889 7.34572 4.81396C7.42193 4.79864 7.49186 4.76132 7.54686 4.70632C7.60186 4.65132 7.63918 4.58139 7.65451 4.50518C7.66943 4.42896 7.66197 4.35 7.63211 4.27811C7.60226 4.20661 7.55197 4.14493 7.48754 4.10211C7.42272 4.05889 7.3469 4.03571 7.26911 4.03571C7.16501 4.03571 7.06483 4.07696 6.99136 4.15082C6.91751 4.22429 6.87626 4.32446 6.87626 4.42857ZM6.87626 2.85714C6.87626 2.93493 6.89943 3.01075 6.94265 3.07557C6.98547 3.14 7.04715 3.19029 7.11865 3.22014C7.19054 3.25 7.26951 3.25746 7.34572 3.24254C7.42193 3.22721 7.49186 3.18989 7.54686 3.13489C7.60186 3.07989 7.63918 3.00996 7.65451 2.93375C7.66943 2.85754 7.66197 2.77857 7.63211 2.70668C7.60226 2.63518 7.55197 2.5735 7.48754 2.53068C7.42272 2.48746 7.3469 2.46429 7.26911 2.46429C7.16501 2.46429 7.06483 2.50554 6.99136 2.57939C6.91751 2.65286 6.87626 2.75304 6.87626 2.85714ZM9.2334 6C9.2334 6.07779 9.25658 6.15361 9.29979 6.21843C9.34261 6.28286 9.40429 6.33314 9.47579 6.363C9.54768 6.39286 9.62665 6.40032 9.70286 6.38539C9.77908 6.37007 9.84901 6.33275 9.90401 6.27775C9.95901 6.22275 9.99633 6.15282 10.0116 6.07661C10.0266 6.00039 10.0191 5.92143 9.98926 5.84954C9.9594 5.77804 9.90911 5.71636 9.84468 5.67354C9.77986 5.63032 9.70404 5.60714 9.62626 5.60714C9.52215 5.60714 9.42197 5.64839 9.34851 5.72225C9.27465 5.79571 9.2334 5.89589 9.2334 6ZM9.2334 4.42857C9.2334 4.50636 9.25658 4.58218 9.29979 4.647C9.34261 4.71143 9.40429 4.76171 9.47579 4.79157C9.54768 4.82143 9.62665 4.82889 9.70286 4.81396C9.77908 4.79864 9.84901 4.76132 9.90401 4.70632C9.95901 4.65132 9.99633 4.58139 10.0116 4.50518C10.0266 4.42896 10.0191 4.35 9.98926 4.27811C9.9594 4.20661 9.90911 4.14493 9.84468 4.10211C9.77986 4.05889 9.70404 4.03571 9.62626 4.03571C9.52215 4.03571 9.42197 4.07696 9.34851 4.15082C9.27465 4.22429 9.2334 4.32446 9.2334 4.42857ZM9.2334 2.85714C9.2334 2.93493 9.25658 3.01075 9.29979 3.07557C9.34261 3.14 9.40429 3.19029 9.47579 3.22014C9.54768 3.25 9.62665 3.25746 9.70286 3.24254C9.77908 3.22721 9.84901 3.18989 9.90401 3.13489C9.95901 3.07989 9.99633 3.00996 10.0116 2.93375C10.0266 2.85754 10.0191 2.77857 9.98926 2.70668C9.9594 2.63518 9.90911 2.5735 9.84468 2.53068C9.77986 2.48746 9.70404 2.46429 9.62626 2.46429C9.52215 2.46429 9.42197 2.50554 9.34851 2.57939C9.27465 2.65286 9.2334 2.75304 9.2334 2.85714Z" fill="#363C45"/>
</svg>
