<svg width="20" height="20" viewBox="0 0 20 20" fill="none" xmlns="http://www.w3.org/2000/svg">
<path d="M16.5517 1.56517e-06C17.0046 1.56517e-06 17.453 0.0862208 17.8713 0.253736C18.2897 0.421252 18.6698 0.666784 18.99 0.976312C19.3102 1.28584 19.5642 1.6533 19.7375 2.05772C19.9108 2.46214 20 2.8956 20 3.33333C20 7.59333 18.8966 12.1267 17.2414 13.1333V20H15.8621V13.1333C14.2345 12.1467 13.1448 7.75333 13.1034 3.56V3.18667C13.1426 2.32828 13.5231 1.51764 14.1655 0.923899C14.808 0.330155 15.6629 -0.000830546 16.5517 1.56517e-06ZM10.3448 1.56517e-06V12.08C11.9448 12.4467 13.1034 14.08 13.1034 16C13.1034 18.18 11.6 20 9.65517 20C7.71034 20 6.2069 18.18 6.2069 16C6.2069 14.0867 7.36552 12.4467 8.96552 12.08V1.56517e-06H10.3448ZM0 1.56517e-06H0.689655C3.77241 1.56517e-06 5.46897 4.24667 5.51724 12.3333V13.3333H1.37931V20H0V1.56517e-06ZM9.65517 13.3333C8.55172 13.3333 7.58621 14.5 7.58621 16C7.58621 17.5 8.55172 18.6667 9.65517 18.6667C10.7586 18.6667 11.7241 17.5 11.7241 16C11.7241 14.5 10.7586 13.3333 9.65517 13.3333ZM1.37931 1.49333V12H4.13793L4.12414 11.36L4.10345 10.7267C3.91034 5.44 2.92414 2.41333 1.53103 1.57333L1.44828 1.53333L1.37931 1.49333ZM14.4828 3.21333V3.54C14.5172 6.42 15.1931 9.62667 15.8621 11.1333V1.44667C15.4778 1.5772 15.1419 1.81447 14.8966 2.12875C14.6512 2.44302 14.5072 2.82031 14.4828 3.21333ZM17.2414 1.44667V11.1333C17.9241 9.59333 18.6207 6.26667 18.6207 3.33333C18.6209 2.91957 18.4884 2.51592 18.2413 2.17801C17.9943 1.84011 17.6449 1.58459 17.2414 1.44667Z" fill="#363C45"/>
</svg>
