<svg width="23" height="22" viewBox="0 0 23 22" fill="none" xmlns="http://www.w3.org/2000/svg">
<path d="M10.9561 19.0208C6.02439 19.0208 2.01855 15.0149 2.01855 10.0833C2.01855 5.15159 6.02439 1.14575 10.9561 1.14575C15.8877 1.14575 19.8936 5.15159 19.8936 10.0833C19.8936 15.0149 15.8877 19.0208 10.9561 19.0208ZM10.9561 2.52075C6.78522 2.52075 3.39355 5.91242 3.39355 10.0833C3.39355 14.2541 6.78522 17.6458 10.9561 17.6458C15.1269 17.6458 18.5186 14.2541 18.5186 10.0833C18.5186 5.91242 15.1269 2.52075 10.9561 2.52075Z" fill="#1A1E25"/>
<path d="M19.3534 20.8908C19.28 20.8908 19.2067 20.8817 19.1425 20.8725C18.7117 20.8175 17.9325 20.5242 17.4925 19.2133C17.2634 18.5258 17.3459 17.8383 17.7217 17.3158C18.0975 16.7933 18.73 16.5 19.4542 16.5C20.3892 16.5 21.1225 16.8575 21.4525 17.49C21.7825 18.1225 21.6909 18.9292 21.1684 19.7083C20.5175 20.6892 19.8117 20.8908 19.3534 20.8908ZM18.8034 18.7825C18.9592 19.2592 19.1792 19.4975 19.3259 19.5158C19.4725 19.5342 19.7475 19.36 20.0317 18.9475C20.2975 18.5533 20.3159 18.2692 20.2517 18.1408C20.1875 18.0125 19.9309 17.875 19.4542 17.875C19.17 17.875 18.9592 17.9667 18.84 18.1225C18.73 18.2783 18.7117 18.5167 18.8034 18.7825Z" fill="#1A1E25"/>
</svg>
