
<svg width="154" height="132" viewBox="0 0 154 132" fill="none" xmlns="http://www.w3.org/2000/svg">
<rect opacity="0.2" y="0.424805" width="153.469" height="131.088" rx="3.99658" fill="#1779F3"/>
<path d="M76.7344 31.9312V66.435" stroke="#1779F3" stroke-width="4.92912" stroke-linecap="round" stroke-linejoin="round"/>
<path d="M59.4824 49.1831H93.9862" stroke="#1779F3" stroke-width="4.92912" stroke-linecap="round" stroke-linejoin="round"/>
<path d="M42.6063 107.745L46.5837 98.7283H47.4789L51.4563 107.745H50.3692L49.3717 105.443H44.6781L43.6933 107.745H42.6063ZM47.0185 99.9561L45.0618 104.56H49.0008L47.0441 99.9561H47.0185ZM54.9558 107.86C54.4016 107.86 53.9156 107.728 53.4979 107.463C53.0886 107.199 52.7689 106.828 52.5387 106.351C52.317 105.865 52.2062 105.293 52.2062 104.637C52.2062 103.972 52.317 103.401 52.5387 102.923C52.7689 102.437 53.0886 102.066 53.4979 101.811C53.9156 101.546 54.4016 101.414 54.9558 101.414C55.4418 101.414 55.8681 101.521 56.2347 101.734C56.6099 101.947 56.887 102.241 57.066 102.616V98.7283H58.1019V107.745H57.0916V106.606C56.9125 106.999 56.6354 107.306 56.2603 107.527C55.8851 107.749 55.4503 107.86 54.9558 107.86ZM55.1732 107.028C55.753 107.028 56.2177 106.824 56.5672 106.415C56.9168 105.997 57.0916 105.404 57.0916 104.637C57.0916 103.861 56.9168 103.268 56.5672 102.859C56.2177 102.45 55.753 102.245 55.1732 102.245C54.5849 102.245 54.116 102.45 53.7664 102.859C53.4254 103.268 53.2549 103.861 53.2549 104.637C53.2549 105.404 53.4254 105.997 53.7664 106.415C54.116 106.824 54.5849 107.028 55.1732 107.028ZM62.4119 107.86C61.8577 107.86 61.3718 107.728 60.954 107.463C60.5447 107.199 60.225 106.828 59.9948 106.351C59.7731 105.865 59.6623 105.293 59.6623 104.637C59.6623 103.972 59.7731 103.401 59.9948 102.923C60.225 102.437 60.5447 102.066 60.954 101.811C61.3718 101.546 61.8577 101.414 62.4119 101.414C62.8979 101.414 63.3242 101.521 63.6908 101.734C64.066 101.947 64.3431 102.241 64.5221 102.616V98.7283H65.558V107.745H64.5477V106.606C64.3687 106.999 64.0916 107.306 63.7164 107.527C63.3413 107.749 62.9064 107.86 62.4119 107.86ZM62.6293 107.028C63.2091 107.028 63.6738 106.824 64.0234 106.415C64.3729 105.997 64.5477 105.404 64.5477 104.637C64.5477 103.861 64.3729 103.268 64.0234 102.859C63.6738 102.45 63.2091 102.245 62.6293 102.245C62.0411 102.245 61.5721 102.45 61.2226 102.859C60.8815 103.268 60.711 103.861 60.711 104.637C60.711 105.404 60.8815 105.997 61.2226 106.415C61.5721 106.824 62.0411 107.028 62.6293 107.028ZM70.6589 99.9817V98.8179H71.9378V99.9817H70.6589ZM70.7868 107.745V101.529H71.8227V107.745H70.7868ZM73.7848 107.745V101.529H74.7951V102.578C74.9827 102.203 75.2428 101.917 75.5753 101.721C75.9078 101.516 76.2957 101.414 76.7391 101.414C77.711 101.414 78.3334 101.836 78.6063 102.68C78.7939 102.288 79.071 101.981 79.4376 101.759C79.8042 101.529 80.2262 101.414 80.7037 101.414C82.0849 101.414 82.7755 102.233 82.7755 103.87V107.745H81.7396V103.921C81.7396 103.349 81.6373 102.932 81.4327 102.667C81.2366 102.395 80.9083 102.258 80.4479 102.258C79.9449 102.258 79.5441 102.437 79.2457 102.795C78.9473 103.153 78.7981 103.631 78.7981 104.228V107.745H77.7622V103.921C77.7622 103.349 77.6599 102.932 77.4553 102.667C77.2592 102.395 76.9309 102.258 76.4705 102.258C75.9589 102.258 75.554 102.437 75.2555 102.795C74.9657 103.153 74.8207 103.631 74.8207 104.228V107.745H73.7848ZM86.6691 107.86C86.2428 107.86 85.8591 107.779 85.5181 107.617C85.1856 107.446 84.9212 107.216 84.7251 106.926C84.529 106.636 84.431 106.312 84.431 105.954C84.431 105.502 84.5461 105.144 84.7763 104.88C85.015 104.616 85.403 104.428 85.9401 104.317C86.4858 104.198 87.2275 104.138 88.1654 104.138H88.5747V103.742C88.5747 103.213 88.4638 102.834 88.2421 102.603C88.029 102.365 87.6837 102.245 87.2062 102.245C86.8311 102.245 86.4687 102.301 86.1192 102.412C85.7696 102.514 85.4115 102.684 85.0449 102.923L84.6868 102.169C85.0108 101.938 85.403 101.755 85.8634 101.619C86.3323 101.482 86.7799 101.414 87.2062 101.414C88.0077 101.414 88.6002 101.61 88.9839 102.002C89.3761 102.395 89.5722 103.004 89.5722 103.831V107.745H88.6002V106.67C88.4382 107.037 88.1867 107.327 87.8457 107.54C87.5132 107.753 87.121 107.86 86.6691 107.86ZM86.8353 107.08C87.3469 107.08 87.7647 106.905 88.0887 106.555C88.4127 106.197 88.5747 105.745 88.5747 105.2V104.816H88.1782C87.4876 104.816 86.9419 104.85 86.5412 104.918C86.149 104.978 85.8719 105.089 85.7099 105.251C85.5564 105.404 85.4797 105.617 85.4797 105.89C85.4797 106.24 85.5991 106.525 85.8378 106.747C86.0851 106.969 86.4176 107.08 86.8353 107.08ZM94.2437 110.162C93.7066 110.162 93.1993 110.089 92.7218 109.944C92.2529 109.808 91.8351 109.599 91.4685 109.318L91.8138 108.563C92.1975 108.836 92.5769 109.032 92.952 109.151C93.3357 109.271 93.7492 109.33 94.1926 109.33C95.4203 109.33 96.0342 108.7 96.0342 107.438V106.338C95.8551 106.73 95.5738 107.041 95.1901 107.271C94.815 107.493 94.3844 107.604 93.8984 107.604C93.3272 107.604 92.8326 107.472 92.4149 107.207C91.9971 106.943 91.6731 106.581 91.4429 106.12C91.2212 105.651 91.1104 105.11 91.1104 104.496C91.1104 103.882 91.2212 103.345 91.4429 102.885C91.6731 102.416 91.9971 102.053 92.4149 101.798C92.8326 101.542 93.3272 101.414 93.8984 101.414C94.3844 101.414 94.815 101.525 95.1901 101.747C95.5738 101.968 95.8551 102.271 96.0342 102.655V101.529H97.0445V107.297C97.0445 108.252 96.8058 108.968 96.3283 109.446C95.8594 109.923 95.1645 110.162 94.2437 110.162ZM94.0902 106.76C94.6871 106.76 95.1603 106.555 95.5098 106.146C95.8594 105.737 96.0342 105.187 96.0342 104.496C96.0342 103.806 95.8594 103.26 95.5098 102.859C95.1603 102.45 94.6871 102.245 94.0902 102.245C93.5019 102.245 93.033 102.45 92.6834 102.859C92.3339 103.26 92.1591 103.806 92.1591 104.496C92.1591 105.187 92.3339 105.737 92.6834 106.146C93.033 106.555 93.5019 106.76 94.0902 106.76ZM101.788 107.86C100.808 107.86 100.032 107.574 99.4608 107.003C98.8896 106.423 98.604 105.639 98.604 104.65C98.604 104.01 98.7319 103.448 98.9877 102.962C99.2434 102.467 99.593 102.088 100.036 101.823C100.488 101.55 101.008 101.414 101.597 101.414C102.441 101.414 103.101 101.687 103.579 102.233C104.056 102.77 104.295 103.511 104.295 104.458V104.854H99.6143C99.6484 105.562 99.853 106.103 100.228 106.479C100.603 106.845 101.123 107.028 101.788 107.028C102.164 107.028 102.522 106.973 102.863 106.862C103.204 106.743 103.528 106.551 103.835 106.287L104.193 107.016C103.911 107.28 103.553 107.489 103.119 107.642C102.684 107.787 102.24 107.86 101.788 107.86ZM101.622 102.181C101.034 102.181 100.569 102.365 100.228 102.731C99.8871 103.098 99.6868 103.58 99.6271 104.176H103.4C103.374 103.546 103.208 103.055 102.901 102.706C102.603 102.356 102.176 102.181 101.622 102.181ZM107.892 107.86C107.406 107.86 106.945 107.792 106.511 107.655C106.076 107.519 105.718 107.327 105.436 107.08L105.769 106.351C106.076 106.598 106.412 106.781 106.779 106.901C107.154 107.011 107.534 107.067 107.917 107.067C108.403 107.067 108.77 106.977 109.017 106.798C109.264 106.619 109.388 106.376 109.388 106.069C109.388 105.831 109.307 105.643 109.145 105.507C108.983 105.362 108.727 105.251 108.378 105.174L107.214 104.918C106.157 104.688 105.628 104.142 105.628 103.281C105.628 102.719 105.85 102.267 106.293 101.926C106.745 101.585 107.333 101.414 108.058 101.414C108.484 101.414 108.889 101.482 109.273 101.619C109.665 101.747 109.989 101.938 110.245 102.194L109.9 102.923C109.652 102.693 109.362 102.518 109.03 102.399C108.706 102.271 108.382 102.207 108.058 102.207C107.581 102.207 107.218 102.301 106.971 102.488C106.724 102.676 106.6 102.923 106.6 103.23C106.6 103.708 106.916 104.014 107.546 104.151L108.71 104.394C109.256 104.513 109.669 104.705 109.951 104.969C110.232 105.225 110.373 105.575 110.373 106.018C110.373 106.589 110.147 107.041 109.695 107.374C109.243 107.698 108.642 107.86 107.892 107.86Z" fill="#1779F3"/>
</svg>
