<svg width="15" height="35" viewBox="0 0 15 35" fill="none" xmlns="http://www.w3.org/2000/svg">
<path d="M3.96625 24.4941C3.90424 24.4941 3.84887 24.4831 3.80014 24.4609C3.75142 24.4388 3.70491 24.41 3.66061 24.3745C3.58088 24.2948 3.54102 24.1951 3.54102 24.0755C3.54102 23.9559 3.58088 23.8563 3.66061 23.7766L9.73354 17.6903L3.66061 11.6174C3.61632 11.5731 3.58531 11.5266 3.56759 11.4779C3.54987 11.4292 3.54102 11.3738 3.54102 11.3118C3.54102 11.2586 3.54987 11.2055 3.56759 11.1523C3.58531 11.0991 3.61632 11.0549 3.66061 11.0194C3.70491 10.9751 3.75142 10.9419 3.80014 10.9198C3.84887 10.8976 3.90424 10.8865 3.96625 10.8865C4.01941 10.8865 4.07256 10.8976 4.12572 10.9198C4.17887 10.9419 4.22317 10.9751 4.2586 11.0194L10.3448 17.0923C10.5043 17.2607 10.584 17.4622 10.584 17.697C10.584 17.9317 10.5043 18.1333 10.3448 18.3016L4.2586 24.3745C4.22317 24.41 4.17887 24.4388 4.12572 24.4609C4.07256 24.4831 4.01941 24.4941 3.96625 24.4941Z" fill="#6C757D"/>
</svg>
