<svg width="27" height="25" viewBox="0 0 27 25" fill="none" xmlns="http://www.w3.org/2000/svg">
<path d="M1.12695 24.0616V17.3389C1.12986 16.321 1.52205 15.3457 2.21786 14.6259C2.91366 13.9061 3.85654 13.5004 4.84056 13.4974H21.5518C22.5358 13.5004 23.4787 13.9061 24.1745 14.6259C24.8703 15.3457 25.2625 16.321 25.2654 17.3389V24.0616M20.6234 13.4974H3.91216V7.25495C3.91399 6.61876 4.15912 6.00918 4.59399 5.55932C5.02886 5.10947 5.61815 4.8559 6.23316 4.854H20.1592C20.7742 4.8559 21.3635 5.10947 21.7983 5.55932C22.2332 6.00918 22.4783 6.61876 22.4802 7.25495V13.4974H20.6234Z" stroke="#3A3A3A" stroke-width="1.68038" stroke-linecap="round" stroke-linejoin="round"/>
<path d="M1.12695 23.7632V22.9652C1.12804 22.3308 1.27713 21.723 1.54167 21.2744C1.8062 20.8259 2.16468 20.5731 2.53878 20.5712H24.1868C24.5609 20.5731 24.9194 20.8259 25.184 21.2744C25.4485 21.723 25.5976 22.3308 25.5987 22.9652V23.7632M4.89183 6.20738V4.6114C4.89323 3.76556 5.09201 2.95505 5.44473 2.35695C5.79745 1.75886 6.27545 1.4218 6.77427 1.41943H11.4804C11.9792 1.4218 12.4572 1.75886 12.8099 2.35695C13.1626 2.95505 13.3614 3.76556 13.3628 4.6114M13.3628 4.6114V6.20738M13.3628 4.6114C13.3642 3.76556 13.563 2.95505 13.9157 2.35695C14.2684 1.75886 14.7464 1.4218 15.2452 1.41943H19.9513C20.4502 1.4218 20.9282 1.75886 21.2809 2.35695C21.6336 2.95505 21.8324 3.76556 21.8338 4.6114V6.20738" stroke="#3A3A3A" stroke-width="1.68038" stroke-linecap="round" stroke-linejoin="round"/>
</svg>
