<svg width="22" height="18" viewBox="0 0 22 18" fill="none" xmlns="http://www.w3.org/2000/svg">
<path d="M1 17.01V11.4065C1.00242 10.558 1.32932 9.74506 1.9093 9.14511C2.48927 8.54517 3.27518 8.20701 4.09538 8.2045H18.0246C18.8448 8.20701 19.6307 8.54517 20.2107 9.14511C20.7907 9.74506 21.1176 10.558 21.12 11.4065V17.01M17.2508 8.2045H3.32154V3.00125C3.32307 2.47097 3.52739 1.96287 3.88987 1.5879C4.25234 1.21294 4.74353 1.00158 5.25615 1H16.8638C17.3765 1.00158 17.8677 1.21294 18.2301 1.5879C18.5926 1.96287 18.7969 2.47097 18.7985 3.00125V8.2045H17.2508Z" stroke="#3A3A3A" stroke-opacity="0.5" stroke-width="1.40064" stroke-linecap="round" stroke-linejoin="round"/>
<path d="M1 17.0102V16.61C1.00089 16.2918 1.12348 15.9869 1.34097 15.7619C1.55846 15.537 1.85319 15.4101 2.16077 15.4092H19.9592C20.2668 15.4101 20.5615 15.537 20.779 15.7619C20.9965 15.9869 21.1191 16.2918 21.12 16.61V17.0102M4.09538 8.20472V7.40422C4.09653 6.97998 4.25996 6.57345 4.54996 6.27346C4.83996 5.97347 5.23296 5.80441 5.64308 5.80322H9.51231C9.92243 5.80441 10.3154 5.97347 10.6054 6.27346C10.8954 6.57345 11.0589 6.97998 11.06 7.40422M11.06 7.40422V8.20472M11.06 7.40422C11.0611 6.97998 11.2246 6.57345 11.5146 6.27346C11.8046 5.97347 12.1976 5.80441 12.6077 5.80322H16.4769C16.887 5.80441 17.28 5.97347 17.57 6.27346C17.86 6.57345 18.0235 6.97998 18.0246 7.40422V8.20472" stroke="#3A3A3A" stroke-opacity="0.5" stroke-width="1.40064" stroke-linecap="round" stroke-linejoin="round"/>
</svg>
