<svg width="23" height="22" viewBox="0 0 23 22" fill="none" xmlns="http://www.w3.org/2000/svg">
<g clip-path="url(#clip0_5669_5316)">
<path d="M21.543 20.3467C21.3587 20.3467 21.1992 20.2829 21.0646 20.1553C20.9299 20.0278 20.8626 19.8647 20.8626 19.6663V17.6252H1.81193V19.6663C1.81193 19.8647 1.7446 20.0278 1.60995 20.1553C1.47529 20.2829 1.31582 20.3467 1.13155 20.3467C0.947283 20.3467 0.787819 20.2829 0.65316 20.1553C0.518501 20.0278 0.451172 19.8647 0.451172 19.6663V12.6499C0.451172 12.0404 0.646073 11.5053 1.03587 11.0446C1.42568 10.5839 1.91116 10.2969 2.49231 10.1835V4.69793C2.49231 4.14512 2.69076 3.66673 3.08765 3.26275C3.48454 2.85877 3.96647 2.65679 4.53346 2.65679H18.1411C18.7081 2.65679 19.19 2.85877 19.5869 3.26275C19.9838 3.66673 20.1822 4.14512 20.1822 4.69793V10.1835C20.7634 10.2969 21.2488 10.5839 21.6386 11.0446C22.0285 11.5053 22.2234 12.0404 22.2234 12.6499V19.6663C22.2234 19.8647 22.156 20.0278 22.0214 20.1553C21.8867 20.2829 21.7272 20.3467 21.543 20.3467ZM20.8626 16.2644V12.6499C20.8626 12.338 20.7527 12.0687 20.533 11.8419C20.3133 11.6151 20.0476 11.5017 19.7357 11.5017H2.93881C2.62697 11.5017 2.3612 11.6151 2.14149 11.8419C1.92179 12.0687 1.81193 12.338 1.81193 12.6499V16.2644H20.8626ZM18.8214 10.141V8.78021C18.8214 8.59594 18.7541 8.43648 18.6195 8.30182C18.4848 8.16716 18.3253 8.09983 18.1411 8.09983H12.698C12.5138 8.09983 12.3543 8.16716 12.2196 8.30182C12.085 8.43648 12.0176 8.59594 12.0176 8.78021V10.141H18.8214ZM10.6569 10.141V8.78021C10.6569 8.59594 10.5896 8.43648 10.4549 8.30182C10.3202 8.16716 10.1608 8.09983 9.9765 8.09983H4.53346C4.34919 8.09983 4.18972 8.16716 4.05506 8.30182C3.9204 8.43648 3.85307 8.59594 3.85307 8.78021V10.141H10.6569ZM9.9765 6.73907C10.2316 6.73907 10.4762 6.78514 10.71 6.87727C10.9439 6.96941 11.153 7.10052 11.3373 7.27062C11.5215 7.10052 11.7306 6.96941 11.9645 6.87727C12.1984 6.78514 12.4429 6.73907 12.698 6.73907H18.1411C18.2545 6.73907 18.3679 6.7497 18.4813 6.77096C18.5947 6.79222 18.7081 6.82412 18.8214 6.86664V4.69793C18.8214 4.51366 18.7541 4.35419 18.6195 4.21954C18.4848 4.08488 18.3253 4.01755 18.1411 4.01755H4.53346C4.34919 4.01755 4.18972 4.08488 4.05506 4.21954C3.9204 4.35419 3.85307 4.51366 3.85307 4.69793V6.86664C3.96647 6.82412 4.07987 6.79222 4.19326 6.77096C4.30666 6.7497 4.42006 6.73907 4.53346 6.73907H9.9765Z" fill="#5C6872"/>
</g>
<defs>
<clipPath id="clip0_5669_5316">
<rect width="21.7722" height="21.7722" fill="white" transform="matrix(1 0 0 -1 0.451172 21.9414)"/>
</clipPath>
</defs>
</svg>
