<svg width="23" height="22" viewBox="0 0 23 22" fill="none" xmlns="http://www.w3.org/2000/svg">
<g clip-path="url(#clip0_5669_5340)">
<path d="M2.61536 22.3872C2.04838 22.3872 1.56644 22.1888 1.16955 21.7919C0.772663 21.395 0.574219 20.913 0.574219 20.3461V5.37769C0.574219 4.82488 0.772663 4.34649 1.16955 3.94251C1.56644 3.53854 2.04838 3.33655 2.61536 3.33655H6.01726V1.29541C6.01726 1.11114 6.08459 0.951675 6.21925 0.817017C6.35391 0.682358 6.51337 0.615028 6.69764 0.615028C6.88191 0.615028 7.04138 0.682358 7.17604 0.817017C7.3107 0.951675 7.37802 1.11114 7.37802 1.29541V3.33655H15.5426V1.29541C15.5426 1.11114 15.6099 0.951675 15.7446 0.817017C15.8792 0.682358 16.0387 0.615028 16.223 0.615028C16.4072 0.615028 16.5667 0.682358 16.7014 0.817017C16.836 0.951675 16.9034 1.11114 16.9034 1.29541V3.33655H20.3053C20.8722 3.33655 21.3542 3.53854 21.7511 3.94251C22.148 4.34649 22.3464 4.82488 22.3464 5.37769V20.3461C22.3464 20.913 22.148 21.395 21.7511 21.7919C21.3542 22.1888 20.8722 22.3872 20.3053 22.3872H2.61536ZM1.93498 20.3461C1.93498 20.5445 2.00231 20.7075 2.13697 20.8351C2.27163 20.9627 2.43109 21.0264 2.61536 21.0264H20.3053C20.4895 21.0264 20.649 20.9627 20.7836 20.8351C20.9183 20.7075 20.9856 20.5445 20.9856 20.3461V10.1404H1.93498V20.3461ZM20.9856 8.7796V5.37769C20.9856 5.19342 20.9183 5.03396 20.7836 4.8993C20.649 4.76464 20.4895 4.69731 20.3053 4.69731H16.9034V6.05807C16.9034 6.25652 16.836 6.41953 16.7014 6.5471C16.5667 6.67467 16.4072 6.73845 16.223 6.73845C16.0387 6.73845 15.8792 6.67467 15.7446 6.5471C15.6099 6.41953 15.5426 6.25652 15.5426 6.05807V4.69731H7.37802V6.05807C7.37802 6.25652 7.3107 6.41953 7.17604 6.5471C7.04138 6.67467 6.88191 6.73845 6.69764 6.73845C6.51337 6.73845 6.35391 6.67467 6.21925 6.5471C6.08459 6.41953 6.01726 6.25652 6.01726 6.05807V4.69731H2.61536C2.43109 4.69731 2.27163 4.76464 2.13697 4.8993C2.00231 5.03396 1.93498 5.19342 1.93498 5.37769V8.7796H20.9856ZM6.69764 13.2021C6.69764 13.4856 6.59842 13.7265 6.39998 13.925C6.20153 14.1234 5.96057 14.2226 5.67707 14.2226C5.39358 14.2226 5.15261 14.1234 4.95417 13.925C4.75572 13.7265 4.6565 13.4856 4.6565 13.2021C4.6565 12.9186 4.75572 12.6776 4.95417 12.4792C5.15261 12.2807 5.39358 12.1815 5.67707 12.1815C5.96057 12.1815 6.20153 12.2807 6.39998 12.4792C6.59842 12.6776 6.69764 12.9186 6.69764 13.2021ZM6.69764 17.9647C6.69764 18.2482 6.59842 18.4892 6.39998 18.6876C6.20153 18.8861 5.96057 18.9853 5.67707 18.9853C5.39358 18.9853 5.15261 18.8861 4.95417 18.6876C4.75572 18.4892 4.6565 18.2482 4.6565 17.9647C4.6565 17.6812 4.75572 17.4403 4.95417 17.2418C5.15261 17.0434 5.39358 16.9442 5.67707 16.9442C5.96057 16.9442 6.20153 17.0434 6.39998 17.2418C6.59842 17.4403 6.69764 17.6812 6.69764 17.9647ZM12.4809 13.2021C12.4809 13.4856 12.3817 13.7265 12.1832 13.925C11.9848 14.1234 11.7438 14.2226 11.4603 14.2226C11.1768 14.2226 10.9358 14.1234 10.7374 13.925C10.539 13.7265 10.4397 13.4856 10.4397 13.2021C10.4397 12.9186 10.539 12.6776 10.7374 12.4792C10.9358 12.2807 11.1768 12.1815 11.4603 12.1815C11.7438 12.1815 11.9848 12.2807 12.1832 12.4792C12.3817 12.6776 12.4809 12.9186 12.4809 13.2021ZM12.4809 17.9647C12.4809 18.2482 12.3817 18.4892 12.1832 18.6876C11.9848 18.8861 11.7438 18.9853 11.4603 18.9853C11.1768 18.9853 10.9358 18.8861 10.7374 18.6876C10.539 18.4892 10.4397 18.2482 10.4397 17.9647C10.4397 17.6812 10.539 17.4403 10.7374 17.2418C10.9358 17.0434 11.1768 16.9442 11.4603 16.9442C11.7438 16.9442 11.9848 17.0434 12.1832 17.2418C12.3817 17.4403 12.4809 17.6812 12.4809 17.9647ZM18.2641 13.2021C18.2641 13.4856 18.1649 13.7265 17.9664 13.925C17.768 14.1234 17.527 14.2226 17.2435 14.2226C16.9601 14.2226 16.7191 14.1234 16.5206 13.925C16.3222 13.7265 16.223 13.4856 16.223 13.2021C16.223 12.9186 16.3222 12.6776 16.5206 12.4792C16.7191 12.2807 16.9601 12.1815 17.2435 12.1815C17.527 12.1815 17.768 12.2807 17.9664 12.4792C18.1649 12.6776 18.2641 12.9186 18.2641 13.2021ZM17.2435 18.9853C16.9601 18.9853 16.7191 18.8861 16.5206 18.6876C16.3222 18.4892 16.223 18.2482 16.223 17.9647C16.223 17.6812 16.3222 17.4403 16.5206 17.2418C16.7191 17.0434 16.9601 16.9442 17.2435 16.9442C17.2435 16.9442 17.2471 16.9442 17.2542 16.9442C17.2613 16.9442 17.2719 16.9442 17.2861 16.9442C17.2861 16.9442 17.2896 16.9477 17.2967 16.9548C17.3038 16.9619 17.3073 16.9654 17.3073 16.9654C17.5766 16.9796 17.8034 17.0824 17.9877 17.2737C18.172 17.4651 18.2641 17.6954 18.2641 17.9647C18.2641 18.2482 18.1649 18.4892 17.9664 18.6876C17.768 18.8861 17.527 18.9853 17.2435 18.9853Z" fill="#5C6872"/>
</g>
<defs>
<clipPath id="clip0_5669_5340">
<rect width="21.7722" height="21.7722" fill="white" transform="matrix(1 0 0 -1 0.574219 21.9414)"/>
</clipPath>
</defs>
</svg>
