<svg width="23" height="22" viewBox="0 0 23 22" fill="none" xmlns="http://www.w3.org/2000/svg">
<g clip-path="url(#clip0_5669_5328)">
<path d="M19.0734 19.4536C18.5064 19.4536 18.0245 19.2516 17.6276 18.8476C17.2307 18.4437 17.0323 17.9653 17.0323 17.4125V16.7321H6.14617V17.4125C6.14617 17.9653 5.94773 18.4437 5.55084 18.8476C5.15395 19.2516 4.67201 19.4536 4.10503 19.4536C3.53804 19.4536 3.05611 19.2516 2.65922 18.8476C2.26233 18.4437 2.06389 17.9653 2.06389 17.4125V16.6045C1.667 16.4628 1.34098 16.2147 1.08584 15.8604C0.830696 15.506 0.703125 15.1162 0.703125 14.6909V12.6498C0.703125 12.4797 0.720843 12.3167 0.75628 12.1608C0.791716 12.0049 0.837784 11.8489 0.894482 11.693C0.908657 11.693 0.915744 11.6895 0.915744 11.6824C0.915744 11.6753 0.922831 11.6647 0.937006 11.6505C0.97953 11.5371 1.03977 11.4237 1.11773 11.3103C1.19569 11.1969 1.28428 11.0906 1.38351 10.9914L3.14824 9.24791L2.46786 8.56752H1.38351C1.19924 8.56752 1.03977 8.5002 0.905113 8.36554C0.770454 8.23088 0.703125 8.07141 0.703125 7.88714C0.703125 7.6887 0.770454 7.52569 0.905113 7.39812C1.03977 7.27055 1.19924 7.20676 1.38351 7.20676H2.74427C2.82931 7.20676 2.91436 7.22448 2.99941 7.25992C3.08446 7.29535 3.16242 7.34142 3.23329 7.39812L3.82862 8.01472L5.01929 4.88922C5.21773 4.35058 5.55084 3.9218 6.0186 3.60287C6.48636 3.28395 6.99665 3.12448 7.54945 3.12448H15.6077C16.1747 3.12448 16.6921 3.28395 17.1598 3.60287C17.6276 3.9218 17.9607 4.35058 18.1591 4.88922L19.3285 8.01472L19.9451 7.39812C20.016 7.34142 20.094 7.29535 20.179 7.25992C20.2641 7.22448 20.3491 7.20676 20.4342 7.20676H21.7949C21.9792 7.20676 22.1387 7.27055 22.2733 7.39812C22.408 7.52569 22.4753 7.6887 22.4753 7.88714C22.4753 8.07141 22.408 8.23088 22.2733 8.36554C22.1387 8.5002 21.9792 8.56752 21.7949 8.56752H20.7106L20.0302 9.24791L21.7949 10.9914C21.8941 11.0906 21.9827 11.1969 22.0607 11.3103C22.1387 11.4237 22.206 11.5442 22.2627 11.6718C22.2627 11.6718 22.2662 11.6753 22.2733 11.6824C22.2804 11.6895 22.2839 11.7001 22.2839 11.7143C22.3406 11.856 22.3867 12.0049 22.4221 12.1608C22.4576 12.3167 22.4753 12.4797 22.4753 12.6498V14.6909C22.4753 15.1162 22.3477 15.506 22.0926 15.8604C21.8374 16.2147 21.5114 16.4628 21.1145 16.6045V17.4125C21.1145 17.9653 20.9161 18.4437 20.5192 18.8476C20.1223 19.2516 19.6404 19.4536 19.0734 19.4536ZM18.393 17.4125C18.393 17.5967 18.4604 17.7562 18.595 17.8909C18.7297 18.0255 18.8891 18.0929 19.0734 18.0929C19.2577 18.0929 19.4171 18.0255 19.5518 17.8909C19.6865 17.7562 19.7538 17.5967 19.7538 17.4125V16.7321H18.393V17.4125ZM3.42465 17.4125C3.42465 17.5967 3.49198 17.7562 3.62664 17.8909C3.76129 18.0255 3.92076 18.0929 4.10503 18.0929C4.2893 18.0929 4.44876 18.0255 4.58342 17.8909C4.71808 17.7562 4.78541 17.5967 4.78541 17.4125V16.7321H3.42465V17.4125ZM2.06389 14.6909C2.06389 14.8752 2.13122 15.0347 2.26587 15.1693C2.40053 15.304 2.56 15.3713 2.74427 15.3713H20.4342C20.6184 15.3713 20.7779 15.304 20.9126 15.1693C21.0472 15.0347 21.1145 14.8752 21.1145 14.6909V12.6498H18.2654C18.1804 12.6498 18.0954 12.664 18.0103 12.6923C17.9253 12.7207 17.8544 12.7703 17.7977 12.8412L16.8409 13.798C16.77 13.8688 16.6921 13.922 16.607 13.9574C16.522 13.9929 16.4369 14.0106 16.3519 14.0106C16.2668 14.0106 16.1818 13.9929 16.0967 13.9574C16.0117 13.922 15.9337 13.8688 15.8629 13.798C15.8062 13.7413 15.7601 13.6704 15.7247 13.5853C15.6892 13.5003 15.6715 13.4152 15.6715 13.3302C15.6715 13.231 15.6892 13.1424 15.7247 13.0644C15.7601 12.9865 15.8062 12.912 15.8629 12.8412L16.8409 11.8844C17.0252 11.6859 17.2413 11.5371 17.4894 11.4379C17.7374 11.3387 17.9961 11.289 18.2654 11.289H20.1578L18.797 9.92829H4.38143L3.02067 11.289H4.91298C5.1823 11.289 5.44098 11.3387 5.68904 11.4379C5.93709 11.5371 6.15326 11.6859 6.33753 11.8844L7.31557 12.8412C7.37227 12.912 7.41834 12.9865 7.45378 13.0644C7.48921 13.1424 7.50693 13.231 7.50693 13.3302C7.50693 13.4152 7.48921 13.5003 7.45378 13.5853C7.41834 13.6704 7.37227 13.7413 7.31557 13.798C7.2447 13.8688 7.16674 13.922 7.08169 13.9574C6.99665 13.9929 6.9116 14.0106 6.82655 14.0106C6.7415 14.0106 6.65646 13.9929 6.57141 13.9574C6.48636 13.922 6.4084 13.8688 6.33753 13.798L5.38074 12.8412C5.32404 12.7845 5.25317 12.7384 5.16812 12.703C5.08308 12.6675 4.99803 12.6498 4.91298 12.6498H2.06389V14.6909ZM18.0954 8.56752L16.8834 5.35698C16.7842 5.10184 16.6177 4.89276 16.3838 4.72975C16.1499 4.56675 15.8912 4.48524 15.6077 4.48524H7.54945C7.28014 4.48524 7.02854 4.56675 6.79466 4.72975C6.56078 4.89276 6.39423 5.10184 6.295 5.35698L5.08308 8.56752H18.0954Z" fill="#5C6872"/>
</g>
<defs>
<clipPath id="clip0_5669_5328">
<rect width="21.7722" height="21.7722" fill="white" transform="matrix(1 0 0 -1 0.703125 21.9414)"/>
</clipPath>
</defs>
</svg>
