<svg width="25" height="25" viewBox="0 0 25 25" fill="none" xmlns="http://www.w3.org/2000/svg">
<path d="M7.98521 11.4257C7.16827 10.608 5.77051 11.1874 5.77051 12.343V17.8209C5.77051 18.221 5.92945 18.6047 6.21238 18.8877C6.49531 19.1706 6.87904 19.3295 7.27916 19.3295H12.7571C13.9127 19.3295 14.492 17.9318 13.6743 17.1148L7.98521 11.4257ZM12.2471 17.8209H7.27916V12.8529L12.2471 17.8209Z" fill="#3A3A3A"/>
<path d="M3.59839 1.2251C3.28923 1.2251 2.98309 1.28599 2.69746 1.4043C2.41183 1.52262 2.1523 1.69603 1.93368 1.91464C1.49218 2.35615 1.24414 2.95496 1.24414 3.57935V21.3407C1.24414 22.0075 1.50903 22.647 1.98052 23.1185C2.45202 23.59 3.09151 23.8549 3.75831 23.8549H21.5204C21.9861 23.8549 22.4413 23.7168 22.8285 23.4582C23.2156 23.1995 23.5174 22.8318 23.6956 22.4016C23.8738 21.9714 23.9205 21.498 23.8296 21.0413C23.7387 20.5846 23.5145 20.1651 23.1852 19.8358L5.26319 1.91455C5.04456 1.69594 4.78501 1.52254 4.49936 1.40425C4.21372 1.28595 3.90756 1.22507 3.59839 1.2251ZM2.75279 3.57935C2.75269 3.41203 2.80223 3.24845 2.89514 3.1093C2.98805 2.97014 3.12015 2.86168 3.27473 2.79764C3.4293 2.7336 3.5994 2.71685 3.7635 2.74952C3.92759 2.78219 4.07831 2.86281 4.19657 2.98117L4.7774 3.562L3.98989 4.34801C3.9523 4.3831 3.92216 4.42541 3.90127 4.4724C3.88038 4.51939 3.86916 4.5701 3.86828 4.62152C3.8674 4.67294 3.87688 4.72401 3.89615 4.77169C3.91542 4.81937 3.94409 4.86268 3.98046 4.89904C4.01682 4.9354 4.06013 4.96408 4.10781 4.98335C4.15549 5.00262 4.20656 5.0121 4.25798 5.01122C4.30939 5.01034 4.36011 4.99912 4.4071 4.97823C4.45409 4.95733 4.49639 4.9272 4.53149 4.88961L5.31825 4.1036L6.85029 5.63489L6.25286 6.23382C6.21528 6.26892 6.18514 6.31122 6.16425 6.35821C6.14336 6.4052 6.13213 6.45592 6.13126 6.50734C6.13038 6.55876 6.13985 6.60982 6.15913 6.6575C6.1784 6.70518 6.20707 6.74849 6.24344 6.78485C6.2798 6.82122 6.32311 6.84989 6.37079 6.86916C6.41847 6.88843 6.46953 6.89791 6.52095 6.89703C6.57237 6.89615 6.62309 6.88493 6.67008 6.86404C6.71707 6.84315 6.75937 6.81301 6.79447 6.77543L7.39265 6.178L8.92544 7.70928L8.13868 8.4968C8.10109 8.5319 8.07095 8.5742 8.05006 8.62119C8.02917 8.66818 8.01795 8.7189 8.01707 8.77031C8.01619 8.82173 8.02567 8.8728 8.04494 8.92048C8.06421 8.96816 8.09289 9.01147 8.12925 9.04783C8.16561 9.08419 8.20892 9.11287 8.2566 9.13214C8.30428 9.15141 8.35535 9.16089 8.40677 9.16001C8.45818 9.15913 8.5089 9.14791 8.55589 9.12702C8.60288 9.10613 8.64518 9.07599 8.68028 9.0384L9.46704 8.25164L10.9998 9.78443L10.4017 10.3826C10.3641 10.4177 10.3339 10.46 10.313 10.507C10.2921 10.554 10.2809 10.6047 10.28 10.6561C10.2792 10.7075 10.2886 10.7586 10.3079 10.8063C10.3272 10.854 10.3559 10.8973 10.3922 10.9336C10.4286 10.97 10.4719 10.9987 10.5196 11.018C10.5673 11.0372 10.6183 11.0467 10.6697 11.0458C10.7212 11.0449 10.7719 11.0337 10.8189 11.0128C10.8659 10.9919 10.9082 10.9618 10.9433 10.9242L11.5414 10.326L13.0735 11.8588L12.2875 12.6456C12.2499 12.6807 12.2197 12.723 12.1989 12.77C12.178 12.817 12.1667 12.8677 12.1659 12.9191C12.165 12.9705 12.1745 13.0216 12.1937 13.0693C12.213 13.1169 12.2417 13.1603 12.278 13.1966C12.3144 13.233 12.3577 13.2617 12.4054 13.2809C12.4531 13.3002 12.5041 13.3097 12.5556 13.3088C12.607 13.3079 12.6577 13.2967 12.7047 13.2758C12.7517 13.2549 12.794 13.2248 12.8291 13.1872L13.6158 12.4004L15.1479 13.9332L14.5504 14.5314C14.5129 14.5665 14.4827 14.6088 14.4618 14.6558C14.4409 14.7028 14.4297 14.7535 14.4288 14.8049C14.428 14.8563 14.4374 14.9074 14.4567 14.9551C14.476 15.0028 14.5047 15.0461 14.541 15.0824C14.5774 15.1188 14.6207 15.1475 14.6684 15.1667C14.716 15.186 14.7671 15.1955 14.8185 15.1946C14.87 15.1937 14.9207 15.1825 14.9677 15.1616C15.0146 15.1407 15.057 15.1106 15.0921 15.073L15.6902 14.4748L17.2223 16.0076L16.4363 16.7944C16.3987 16.8295 16.3685 16.8718 16.3476 16.9188C16.3268 16.9658 16.3155 17.0165 16.3147 17.0679C16.3138 17.1193 16.3233 17.1704 16.3425 17.2181C16.3618 17.2657 16.3905 17.309 16.4268 17.3454C16.4632 17.3818 16.5065 17.4104 16.5542 17.4297C16.6019 17.449 16.6529 17.4585 16.7043 17.4576C16.7558 17.4567 16.8065 17.4455 16.8535 17.4246C16.9005 17.4037 16.9428 17.3736 16.9779 17.336L17.7646 16.5492L19.2967 18.082L18.6992 18.6802C18.6616 18.7153 18.6315 18.7576 18.6106 18.8046C18.5897 18.8516 18.5785 18.9023 18.5776 18.9537C18.5767 19.0051 18.5862 19.0562 18.6055 19.1039C18.6248 19.1516 18.6534 19.1949 18.6898 19.2312C18.7262 19.2676 18.7695 19.2963 18.8172 19.3155C18.8648 19.3348 18.9159 19.3443 18.9673 19.3434C19.0187 19.3425 19.0695 19.3313 19.1164 19.3104C19.1634 19.2895 19.2057 19.2594 19.2408 19.2218L19.839 18.6236L21.3711 20.1564L20.5851 20.9432C20.5475 20.9783 20.5173 21.0206 20.4964 21.0676C20.4755 21.1146 20.4643 21.1653 20.4634 21.2167C20.4626 21.2681 20.472 21.3192 20.4913 21.3669C20.5106 21.4145 20.5393 21.4578 20.5756 21.4942C20.612 21.5306 20.6553 21.5592 20.703 21.5785C20.7507 21.5978 20.8017 21.6073 20.8531 21.6064C20.9046 21.6055 20.9553 21.5943 21.0023 21.5734C21.0493 21.5525 21.0916 21.5224 21.1267 21.4848L21.9134 20.698L22.1171 20.9017C22.2357 21.0199 22.3165 21.1706 22.3493 21.3347C22.3822 21.4989 22.3656 21.6691 22.3016 21.8238C22.2376 21.9785 22.1291 22.1107 21.9899 22.2037C21.8507 22.2967 21.6871 22.3463 21.5197 22.3462H3.75831C3.49163 22.3462 3.23587 22.2403 3.0473 22.0517C2.85873 21.8631 2.75279 21.6074 2.75279 21.3407V3.57935Z" fill="#3A3A3A"/>
</svg>
