<svg width="21" height="21" viewBox="0 0 21 21" fill="none" xmlns="http://www.w3.org/2000/svg">
<g clip-path="url(#clip0_3360_2407)">
<path d="M6.24738 9.47968C5.56644 8.79811 4.40137 9.28099 4.40137 10.2442V14.8102C4.40137 15.1437 4.53385 15.4636 4.76968 15.6994C5.00551 15.9352 5.32536 16.0677 5.65887 16.0677H10.2248C11.1881 16.0677 11.671 14.9026 10.9894 14.2217L6.24738 9.47968ZM9.79982 14.8102H5.65887V10.6693L9.79982 14.8102Z" fill="#3A3A3A" fill-opacity="0.5"/>
<path d="M2.59123 0.977539C2.33354 0.977539 2.07837 1.0283 1.84028 1.12691C1.6022 1.22553 1.38588 1.37007 1.20366 1.55229C0.835651 1.9203 0.628906 2.41943 0.628906 2.93987V17.7444C0.628906 18.3002 0.849695 18.8332 1.2427 19.2262C1.63571 19.6193 2.16874 19.84 2.72453 19.84H17.5297C17.9178 19.8401 18.2973 19.725 18.62 19.5094C18.9427 19.2938 19.1943 18.9873 19.3428 18.6287C19.4913 18.2701 19.5302 17.8755 19.4545 17.4948C19.3787 17.1142 19.1918 16.7645 18.9174 16.4901L3.97889 1.55222C3.79665 1.37 3.58031 1.22547 3.34222 1.12686C3.10412 1.02826 2.84894 0.977519 2.59123 0.977539ZM1.88641 2.93987C1.88632 2.8004 1.92762 2.66405 2.00506 2.54807C2.0825 2.43208 2.19261 2.34168 2.32145 2.2883C2.45029 2.23491 2.59208 2.22096 2.72886 2.24819C2.86563 2.27542 2.99126 2.34261 3.08983 2.44127L3.57397 2.92541L2.91756 3.58056C2.88623 3.60982 2.86111 3.64508 2.84369 3.68425C2.82628 3.72342 2.81693 3.76569 2.81619 3.80855C2.81546 3.85141 2.82336 3.89397 2.83942 3.93371C2.85549 3.97345 2.87939 4.00956 2.9097 4.03987C2.94001 4.07018 2.97611 4.09407 3.01585 4.11014C3.05559 4.1262 3.09816 4.1341 3.14102 4.13337C3.18387 4.13264 3.22615 4.12328 3.26531 4.10587C3.30448 4.08846 3.33974 4.06334 3.369 4.03201L4.02479 3.37685L5.30178 4.65321L4.80381 5.15244C4.77248 5.18169 4.74736 5.21696 4.72994 5.25612C4.71253 5.29529 4.70318 5.33756 4.70244 5.38042C4.70171 5.42328 4.70961 5.46585 4.72568 5.50559C4.74174 5.54533 4.76564 5.58143 4.79595 5.61174C4.82626 5.64205 4.86236 5.66595 4.9021 5.68201C4.94184 5.69808 4.98441 5.70598 5.02727 5.70525C5.07012 5.70451 5.1124 5.69516 5.15156 5.67774C5.19073 5.66033 5.22599 5.63521 5.25525 5.60388L5.75385 5.10591L7.03147 6.38227L6.37568 7.03869C6.34435 7.06795 6.31923 7.10321 6.30182 7.14237C6.2844 7.18154 6.27505 7.22381 6.27432 7.26667C6.27359 7.30953 6.28149 7.3521 6.29755 7.39184C6.31361 7.43158 6.33751 7.46768 6.36782 7.49799C6.39813 7.5283 6.43423 7.5522 6.47397 7.56826C6.51371 7.58433 6.55628 7.59223 6.59914 7.5915C6.642 7.59076 6.68427 7.58141 6.72344 7.56399C6.76261 7.54658 6.79787 7.52146 6.82712 7.49013L7.48291 6.83435L8.76053 8.11197L8.26193 8.61056C8.2306 8.63982 8.20548 8.67508 8.18807 8.71425C8.17065 8.75342 8.1613 8.79569 8.16057 8.83855C8.15984 8.88141 8.16774 8.92397 8.1838 8.96371C8.19986 9.00346 8.22376 9.03956 8.25407 9.06987C8.28438 9.10017 8.32048 9.12407 8.36022 9.14014C8.39996 9.1562 8.44253 9.1641 8.48539 9.16337C8.52825 9.16264 8.57052 9.15328 8.60969 9.13587C8.64886 9.11846 8.68412 9.09334 8.71337 9.06201L9.21197 8.56341L10.489 9.84103L9.83381 10.4968C9.80248 10.5261 9.77736 10.5613 9.75994 10.6005C9.74253 10.6397 9.73318 10.6819 9.73244 10.7248C9.73171 10.7677 9.73961 10.8102 9.75568 10.85C9.77174 10.8897 9.79564 10.9258 9.82595 10.9561C9.85626 10.9864 9.89236 11.0103 9.9321 11.0264C9.97184 11.0425 10.0144 11.0504 10.0573 11.0496C10.1001 11.0489 10.1424 11.0395 10.1816 11.0221C10.2207 11.0047 10.256 10.9796 10.2852 10.9483L10.941 10.2925L12.218 11.5701L11.7201 12.0687C11.6887 12.0979 11.6636 12.1332 11.6462 12.1724C11.6288 12.2115 11.6194 12.2538 11.6187 12.2967C11.618 12.3395 11.6259 12.3821 11.6419 12.4218C11.658 12.4616 11.6819 12.4977 11.7122 12.528C11.7425 12.5583 11.7786 12.5822 11.8183 12.5983C11.8581 12.6143 11.9007 12.6222 11.9435 12.6215C11.9864 12.6208 12.0286 12.6114 12.0678 12.594C12.107 12.5766 12.1422 12.5515 12.1715 12.5201L12.6701 12.0215L13.9471 13.2992L13.2919 13.9549C13.2606 13.9842 13.2355 14.0195 13.2181 14.0586C13.2007 14.0978 13.1913 14.1401 13.1906 14.1829C13.1898 14.2258 13.1977 14.2683 13.2138 14.3081C13.2299 14.3478 13.2538 14.3839 13.2841 14.4142C13.3144 14.4446 13.3505 14.4684 13.3902 14.4845C13.43 14.5006 13.4725 14.5085 13.5154 14.5077C13.5582 14.507 13.6005 14.4977 13.6397 14.4802C13.6789 14.4628 13.7141 14.4377 13.7434 14.4064L14.3992 13.7506L15.6762 15.0282L15.1782 15.5268C15.1469 15.5561 15.1217 15.5913 15.1043 15.6305C15.0869 15.6697 15.0776 15.7119 15.0768 15.7548C15.0761 15.7977 15.084 15.8402 15.1001 15.88C15.1161 15.9197 15.14 15.9558 15.1703 15.9861C15.2006 16.0164 15.2367 16.0403 15.2765 16.0564C15.3162 16.0725 15.3588 16.0804 15.4016 16.0796C15.4445 16.0789 15.4868 16.0695 15.5259 16.0521C15.5651 16.0347 15.6004 16.0096 15.6296 15.9783L16.1282 15.4797L17.4052 16.7573L16.7501 17.4131C16.7187 17.4423 16.6936 17.4776 16.6762 17.5168C16.6588 17.5559 16.6494 17.5982 16.6487 17.641C16.648 17.6839 16.6559 17.7265 16.6719 17.7662C16.688 17.806 16.7119 17.8421 16.7422 17.8724C16.7725 17.9027 16.8086 17.9266 16.8483 17.9426C16.8881 17.9587 16.9307 17.9666 16.9735 17.9659C17.0164 17.9651 17.0586 17.9558 17.0978 17.9384C17.137 17.921 17.1722 17.8958 17.2015 17.8645L17.8573 17.2087L18.027 17.3785C18.1259 17.477 18.1933 17.6026 18.2206 17.7394C18.248 17.8763 18.2342 18.0181 18.1808 18.1471C18.1275 18.276 18.0371 18.3862 17.9211 18.4638C17.805 18.5413 17.6686 18.5826 17.5291 18.5825H2.72453C2.50225 18.5825 2.28907 18.4942 2.13189 18.3371C1.97471 18.1799 1.88641 17.9667 1.88641 17.7444V2.93987Z" fill="#3A3A3A" fill-opacity="0.5"/>
</g>
<defs>
<clipPath id="clip0_3360_2407">
<rect width="20.12" height="20.12" fill="white" transform="translate(0 0.348633)"/>
</clipPath>
</defs>
</svg>
