<svg width="19" height="19" viewBox="0 0 19 19" fill="none" xmlns="http://www.w3.org/2000/svg">
<g clip-path="url(#clip0_5669_5225)">
<path d="M1.68853 18.6191C1.3315 18.6191 1.02919 18.4953 0.781575 18.2477C0.533962 18.0001 0.410156 17.7036 0.410156 17.358V8.11577C0.421673 7.91998 0.467741 7.73859 0.548359 7.57159C0.628977 7.4046 0.732628 7.25776 0.859314 7.13107C0.870831 7.11956 0.879468 7.11092 0.885227 7.10516C0.890985 7.0994 0.899623 7.09652 0.91114 7.09652L8.92687 1.05017C8.97294 1.01562 9.02477 0.986832 9.08235 0.963797C9.13993 0.940763 9.19752 0.929247 9.2551 0.929247C9.31269 0.929247 9.37027 0.940763 9.42786 0.963797C9.48544 0.986832 9.53727 1.01562 9.58333 1.05017L17.5991 7.09652C17.6106 7.09652 17.6192 7.0994 17.625 7.10516C17.6307 7.11092 17.6394 7.11956 17.6509 7.13107C17.7776 7.25776 17.8812 7.40172 17.9618 7.56296C18.0425 7.72419 18.0885 7.89695 18.1 8.08122V17.3408C18.1 17.6978 17.9762 18.0001 17.7286 18.2477C17.481 18.4953 17.1787 18.6191 16.8217 18.6191H1.68853ZM1.60215 7.94301C1.57912 7.97756 1.55896 8.01211 1.54169 8.04667C1.52441 8.08122 1.51577 8.11577 1.51577 8.15032V17.3408C1.51577 17.3868 1.53305 17.4271 1.5676 17.4617C1.60215 17.4962 1.64246 17.5135 1.68853 17.5135H16.8217C16.8677 17.5135 16.9081 17.4962 16.9426 17.4617C16.9772 17.4271 16.9944 17.3868 16.9944 17.3408V8.11577C16.9944 8.09273 16.9858 8.06682 16.9685 8.03803C16.9512 8.00924 16.9311 7.97756 16.9081 7.94301L9.2551 2.17307L1.60215 7.94301Z" fill="#222222"/>
</g>
<defs>
<clipPath id="clip0_5669_5225">
<rect width="17.6899" height="17.6899" fill="white" transform="matrix(1 0 0 -1 0.410156 18.2568)"/>
</clipPath>
</defs>
</svg>
