<svg width="29" height="28" viewBox="0 0 29 28" fill="none" xmlns="http://www.w3.org/2000/svg">
<g clip-path="url(#clip0_6564_3776)">
<path d="M0.5 2.0055C0.5 0.89775 1.4205 0 2.55625 0H26.4438C27.5795 0 28.5 0.89775 28.5 2.0055V25.9945C28.5 27.1023 27.5795 28 26.4438 28H2.55625C1.4205 28 0.5 27.1023 0.5 25.9945V2.0055ZM9.15025 23.4395V10.7958H4.9485V23.4395H9.15025ZM7.05025 9.0685C8.515 9.0685 9.42675 8.099 9.42675 6.8845C9.4005 5.64375 8.51675 4.7005 7.07825 4.7005C5.63975 4.7005 4.7 5.6455 4.7 6.8845C4.7 8.099 5.61175 9.0685 7.02225 9.0685H7.05025ZM15.6392 23.4395V16.3783C15.6392 16.0002 15.6672 15.6222 15.7793 15.3527C16.082 14.5985 16.7733 13.8162 17.9353 13.8162C19.456 13.8162 20.0632 14.9748 20.0632 16.6758V23.4395H24.265V16.1875C24.265 12.3025 22.193 10.4965 19.428 10.4965C17.1985 10.4965 16.1993 11.7215 15.6392 12.5842V12.628H15.6112L15.6392 12.5842V10.7958H11.4392C11.4917 11.9823 11.4392 23.4395 11.4392 23.4395H15.6392Z" fill="black"/>
</g>
<defs>
<clipPath id="clip0_6564_3776">
<rect x="0.5" width="28" height="28" rx="5.6" fill="white"/>
</clipPath>
</defs>
</svg>
