<svg width="21" height="21" viewBox="0 0 21 21" fill="none" xmlns="http://www.w3.org/2000/svg">
<g clip-path="url(#clip0_5669_5255)">
<path d="M10.618 11.563C9.56818 11.563 8.66787 11.1909 7.91706 10.4468C7.16625 9.70259 6.79085 8.79896 6.79085 7.73587C6.79085 6.68606 7.16625 5.78575 7.91706 5.03494C8.66787 4.28413 9.56818 3.90873 10.618 3.90873C11.6678 3.90873 12.5681 4.28413 13.3189 5.03494C14.0697 5.78575 14.4451 6.68606 14.4451 7.73587C14.4451 8.79896 14.0697 9.70259 13.3189 10.4468C12.5681 11.1909 11.6678 11.563 10.618 11.563ZM10.618 5.18444C9.91369 5.18444 9.31237 5.4336 8.81405 5.93193C8.31572 6.43025 8.06656 7.03157 8.06656 7.73587C8.06656 8.44017 8.31572 9.04148 8.81405 9.53981C9.31237 10.0381 9.91369 10.2873 10.618 10.2873C11.3223 10.2873 11.9236 10.0381 12.4219 9.53981C12.9203 9.04148 13.1694 8.44017 13.1694 7.73587C13.1694 7.03157 12.9203 6.43025 12.4219 5.93193C11.9236 5.4336 11.3223 5.18444 10.618 5.18444ZM10.618 21.1309C10.4984 21.1309 10.3788 21.1142 10.2592 21.081C10.1396 21.0478 10.0266 20.998 9.92033 20.9315C9.8406 20.8784 9.77083 20.8219 9.71103 20.7621C9.65124 20.7023 9.6014 20.6392 9.56154 20.5727C9.40207 20.3468 9.20274 20.0345 8.96355 19.6359C8.71106 19.2372 8.432 18.7788 8.12636 18.2605C7.82072 17.7422 7.49515 17.1775 7.14964 16.5662C6.80414 15.9549 6.45863 15.3237 6.11312 14.6726C5.70117 13.8752 5.33574 13.1311 5.01681 12.4401C4.71117 11.7491 4.45204 11.1112 4.23942 10.5265C4.0268 9.94179 3.86734 9.41689 3.76103 8.95178C3.65472 8.48668 3.60156 8.08137 3.60156 7.73587C3.60156 6.77908 3.7876 5.86881 4.15969 5.00504C4.51848 4.15457 5.01681 3.41372 5.65466 2.78251C6.29252 2.1513 7.03669 1.64965 7.88716 1.27757C8.73764 0.905485 9.64791 0.719444 10.618 0.719444C11.5881 0.719444 12.4983 0.905485 13.3488 1.27757C14.1993 1.64965 14.9435 2.1513 15.5813 2.78251C16.2192 3.41372 16.7175 4.15457 17.0763 5.00504C17.4484 5.86881 17.6344 6.77908 17.6344 7.73587C17.6344 8.08137 17.5813 8.48668 17.4749 8.95178C17.3686 9.41689 17.2092 9.94179 16.9966 10.5265C16.7839 11.1112 16.5248 11.7491 16.2192 12.4401C15.9002 13.1311 15.5348 13.8752 15.1229 14.6726C14.7773 15.3237 14.4318 15.9549 14.0863 16.5662C13.7408 17.1775 13.4153 17.7422 13.1096 18.2605C12.804 18.7788 12.5249 19.2372 12.2724 19.6359C12.0332 20.0345 11.8339 20.3468 11.6744 20.5727C11.5814 20.7056 11.4651 20.8219 11.3256 20.9216C11.1861 21.0212 11.0366 21.0843 10.8771 21.1109C10.8373 21.1242 10.7941 21.1309 10.7476 21.1309C10.701 21.1309 10.6579 21.1309 10.618 21.1309ZM10.618 1.99516C9.82067 1.99516 9.0765 2.14798 8.38549 2.45362C7.69448 2.75926 7.08652 3.17121 6.56162 3.68946C6.03671 4.20772 5.62809 4.81236 5.33574 5.50337C5.0301 6.20767 4.87728 6.95184 4.87728 7.73587C4.87728 8.34715 5.08325 9.18433 5.4952 10.2474C5.90715 11.2972 6.4088 12.4102 7.00014 13.5862C7.59149 14.7623 8.21938 15.9151 8.88381 17.0446C9.53496 18.1741 10.113 19.111 10.618 19.8551C11.123 19.111 11.701 18.1741 12.3522 17.0446C13.0166 15.9151 13.6445 14.7623 14.2358 13.5862C14.8272 12.4102 15.3288 11.2972 15.7408 10.2474C16.1527 9.18433 16.3587 8.34715 16.3587 7.73587C16.3587 6.95184 16.2059 6.20767 15.9002 5.50337C15.6079 4.81236 15.1993 4.20772 14.6744 3.68946C14.1495 3.17121 13.5415 2.75926 12.8505 2.45362C12.1595 2.14798 11.4153 1.99516 10.618 1.99516Z" fill="#636363"/>
</g>
<defs>
<clipPath id="clip0_5669_5255">
<rect width="20.4114" height="20.4114" fill="white" transform="matrix(1 0 0 -1 0.410156 20.7124)"/>
</clipPath>
</defs>
</svg>
