<svg width="42" height="41" viewBox="0 0 42 41" fill="none" xmlns="http://www.w3.org/2000/svg">
<rect x="0.96749" y="0.679892" width="39.4621" height="39.4621" rx="4.76266" stroke="black" stroke-width="1.36076"/>
<g clip-path="url(#clip0_5669_5245)">
<path d="M15.3392 30.3267C15.178 30.3267 15.0384 30.2708 14.9206 30.1592C14.8028 30.0476 14.7439 29.905 14.7439 29.7313V25.564H12.9579C12.4618 25.564 12.0401 25.3904 11.6928 25.0431C11.3455 24.6958 11.1719 24.2741 11.1719 23.778V17.8247C11.1719 17.341 11.3455 16.9224 11.6928 16.5689C12.0401 16.2154 12.4618 16.0387 12.9579 16.0387H14.7439V13.062C14.7439 12.5783 14.9175 12.1597 15.2648 11.8062C15.6121 11.4527 16.0338 11.276 16.5299 11.276H24.8645C25.3606 11.276 25.7823 11.4527 26.1296 11.8062C26.4769 12.1597 26.6505 12.5783 26.6505 13.062V16.0387H28.4365C28.9326 16.0387 29.3543 16.2154 29.7016 16.5689C30.0489 16.9224 30.2225 17.341 30.2225 17.8247V23.778C30.2225 24.2741 30.0489 24.6958 29.7016 25.0431C29.3543 25.3904 28.9326 25.564 28.4365 25.564H26.6505V29.7313C26.6505 29.905 26.5916 30.0476 26.4738 30.1592C26.356 30.2708 26.2164 30.3267 26.0552 30.3267H15.3392ZM25.4599 29.136V21.992H15.9345V29.136H25.4599ZM28.4365 24.3733C28.5978 24.3733 28.7373 24.3175 28.8551 24.2059C28.973 24.0943 29.0319 23.9516 29.0319 23.778V17.8247C29.0319 17.6634 28.973 17.5239 28.8551 17.4061C28.7373 17.2882 28.5978 17.2293 28.4365 17.2293H12.9579C12.7966 17.2293 12.6571 17.2882 12.5393 17.4061C12.4215 17.5239 12.3625 17.6634 12.3625 17.8247V23.778C12.3625 23.9516 12.4215 24.0943 12.5393 24.2059C12.6571 24.3175 12.7966 24.3733 12.9579 24.3733H14.7439V21.3967C14.7439 21.2354 14.8028 21.0959 14.9206 20.9781C15.0384 20.8602 15.178 20.8013 15.3392 20.8013H26.0552C26.2164 20.8013 26.356 20.8602 26.4738 20.9781C26.5916 21.0959 26.6505 21.2354 26.6505 21.3967V24.3733H28.4365ZM25.4599 16.0387V13.062C25.4599 12.9008 25.401 12.7612 25.2831 12.6434C25.1653 12.5256 25.0258 12.4667 24.8645 12.4667H16.5299C16.3686 12.4667 16.2291 12.5256 16.1113 12.6434C15.9935 12.7612 15.9345 12.9008 15.9345 13.062V16.0387H25.4599ZM14.1485 19.6107C13.9873 19.6107 13.8478 19.5549 13.7299 19.4432C13.6121 19.3316 13.5532 19.189 13.5532 19.0153C13.5532 18.8541 13.6121 18.7146 13.7299 18.5967C13.8478 18.4789 13.9873 18.42 14.1485 18.42H15.3392C15.5004 18.42 15.64 18.4789 15.7578 18.5967C15.8756 18.7146 15.9345 18.8541 15.9345 19.0153C15.9345 19.189 15.8756 19.3316 15.7578 19.4432C15.64 19.5549 15.5004 19.6107 15.3392 19.6107H14.1485ZM17.7205 24.3733C17.5593 24.3733 17.4198 24.3175 17.3019 24.2059C17.1841 24.0943 17.1252 23.9516 17.1252 23.778C17.1252 23.6168 17.1841 23.4772 17.3019 23.3594C17.4198 23.2416 17.5593 23.1827 17.7205 23.1827H23.6739C23.8351 23.1827 23.9746 23.2416 24.0925 23.3594C24.2103 23.4772 24.2692 23.6168 24.2692 23.778C24.2692 23.9516 24.2103 24.0943 24.0925 24.2059C23.9746 24.3175 23.8351 24.3733 23.6739 24.3733H17.7205ZM17.7205 26.7547C17.5593 26.7547 17.4198 26.6988 17.3019 26.5872C17.1841 26.4756 17.1252 26.333 17.1252 26.1593C17.1252 25.9981 17.1841 25.8586 17.3019 25.7407C17.4198 25.6229 17.5593 25.564 17.7205 25.564H21.8879C22.0491 25.564 22.1886 25.6229 22.3065 25.7407C22.4243 25.8586 22.4832 25.9981 22.4832 26.1593C22.4832 26.333 22.4243 26.4756 22.3065 26.5872C22.1886 26.6988 22.0491 26.7547 21.8879 26.7547H17.7205Z" fill="black"/>
</g>
<defs>
<clipPath id="clip0_5669_5245">
<rect width="19.0507" height="19.0507" fill="white" transform="matrix(1 0 0 -1 11.1719 29.9365)"/>
</clipPath>
</defs>
</svg>
