<svg width="58" height="58" viewBox="0 0 58 58" fill="none" xmlns="http://www.w3.org/2000/svg">
<path fill-rule="evenodd" clip-rule="evenodd" d="M29.1485 15.731C27.7051 15.731 26.3208 16.3043 25.3002 17.325C24.2795 18.3456 23.7061 19.7299 23.7061 21.1733C23.7061 22.6167 24.2795 24.001 25.3002 25.0216C26.3208 26.0423 27.7051 26.6157 29.1485 26.6157C30.5919 26.6157 31.9762 26.0423 32.9968 25.0216C34.0175 24.001 34.5909 22.6167 34.5909 21.1733C34.5909 19.7299 34.0175 18.3456 32.9968 17.325C31.9762 16.3043 30.5919 15.731 29.1485 15.731ZM25.4248 21.1733C25.4248 20.1857 25.8171 19.2386 26.5154 18.5402C27.2138 17.8419 28.1609 17.4496 29.1485 17.4496C30.1361 17.4496 31.0832 17.8419 31.7816 18.5402C32.4799 19.2386 32.8722 20.1857 32.8722 21.1733C32.8722 22.1609 32.4799 23.108 31.7816 23.8064C31.0832 24.5047 30.1361 24.897 29.1485 24.897C28.1609 24.897 27.2138 24.5047 26.5154 23.8064C25.8171 23.108 25.4248 22.1609 25.4248 21.1733ZM29.1485 28.3343C26.4984 28.3343 24.0556 28.937 22.2464 29.9544C20.4636 30.9581 19.1231 32.4774 19.1231 34.3495V34.4664C19.122 35.7978 19.1208 37.4683 20.5862 38.6622C21.3069 39.2488 22.3163 39.667 23.6798 39.942C25.0455 40.2193 26.8272 40.3648 29.1485 40.3648C31.4698 40.3648 33.2503 40.2193 34.6184 39.942C35.9818 39.667 36.9901 39.2488 37.7119 38.6622C39.1773 37.4683 39.175 35.7978 39.1739 34.4664V34.3495C39.1739 32.4774 37.8334 30.9581 36.0517 29.9544C34.2414 28.937 31.7998 28.3343 29.1485 28.3343ZM20.8417 34.3495C20.8417 33.3745 21.5544 32.3158 23.0886 31.4531C24.5964 30.6052 26.7367 30.0529 29.1496 30.0529C31.5603 30.0529 33.7006 30.6052 35.2084 31.4531C36.7437 32.3158 37.4553 33.3745 37.4553 34.3495C37.4553 35.8482 37.4094 36.6915 36.6257 37.3285C36.2018 37.6745 35.4914 38.0125 34.2769 38.2577C33.0659 38.5029 31.4102 38.6461 29.1485 38.6461C26.8868 38.6461 25.23 38.5029 24.0201 38.2577C22.8056 38.0125 22.0952 37.6745 21.6713 37.3297C20.8876 36.6915 20.8417 35.8482 20.8417 34.3495Z" fill="#3A3A3A"/>
<circle cx="28.5981" cy="28.5981" r="28.0482" stroke="#1779F3" stroke-opacity="0.3" stroke-width="1.09993"/>
</svg>
