<svg width="23" height="23" viewBox="0 0 23 23" fill="none" xmlns="http://www.w3.org/2000/svg">
<g clip-path="url(#clip0_5669_6597)">
<path d="M11.2421 11.6369C10.4909 11.6369 9.78214 11.4951 9.11593 11.2116C8.4639 10.9281 7.88983 10.5383 7.39372 10.0422C6.89761 9.54611 6.50781 8.97204 6.22432 8.32C5.94083 7.6538 5.79908 6.94507 5.79908 6.19382C5.79908 5.44256 5.94083 4.74092 6.22432 4.08889C6.50781 3.42268 6.89761 2.84507 7.39372 2.35604C7.88983 1.86702 8.4639 1.47367 9.11593 1.17601C9.78214 0.892517 10.4909 0.750771 11.2421 0.750771C11.9934 0.750771 12.7021 0.892517 13.3683 1.17601C14.0203 1.47367 14.5944 1.86702 15.0905 2.35604C15.5866 2.84507 15.9764 3.42268 16.2599 4.08889C16.5434 4.74092 16.6852 5.44256 16.6852 6.19382C16.6852 6.94507 16.5434 7.6538 16.2599 8.32C15.9764 8.97204 15.5866 9.54611 15.0905 10.0422C14.5944 10.5383 14.0203 10.9281 13.3683 11.2116C12.7021 11.4951 11.9934 11.6369 11.2421 11.6369ZM11.2421 2.11153C10.1223 2.11153 9.162 2.51196 8.36114 3.31283C7.56027 4.11369 7.15984 5.07402 7.15984 6.19382C7.15984 7.32778 7.56027 8.29166 8.36114 9.08543C9.162 9.87921 10.1223 10.2761 11.2421 10.2761C12.3619 10.2761 13.3222 9.87921 14.1231 9.08543C14.924 8.29166 15.3244 7.32778 15.3244 6.19382C15.3244 5.07402 14.924 4.11369 14.1231 3.31283C13.3222 2.51196 12.3619 2.11153 11.2421 2.11153ZM20.0871 22.5229C19.9028 22.5229 19.7433 22.4592 19.6087 22.3316C19.474 22.204 19.4067 22.041 19.4067 21.8426C19.4067 20.7228 19.1941 19.6668 18.7688 18.6745C18.3436 17.6823 17.7589 16.8177 17.0147 16.0806C16.2706 15.3435 15.4024 14.7624 14.4101 14.3371C13.4179 13.8977 12.3619 13.678 11.2421 13.678C10.1223 13.678 9.06632 13.8977 8.0741 14.3371C7.08188 14.7624 6.21369 15.3435 5.46952 16.0806C4.72535 16.8177 4.14065 17.6823 3.71541 18.6745C3.29018 19.6668 3.07756 20.7228 3.07756 21.8426C3.07756 22.041 3.01023 22.204 2.87557 22.3316C2.74091 22.4592 2.58145 22.5229 2.39718 22.5229C2.21291 22.5229 2.05344 22.4592 1.91878 22.3316C1.78413 22.204 1.7168 22.041 1.7168 21.8426C1.7168 20.5385 1.96485 19.3053 2.46096 18.143C2.97125 16.9949 3.65517 15.9885 4.51274 15.1238C5.3703 14.2592 6.38024 13.5788 7.54256 13.0827C8.6907 12.5724 9.92389 12.3172 11.2421 12.3172C12.5604 12.3172 13.7936 12.5724 14.9417 13.0827C16.104 13.5788 17.1139 14.2592 17.9715 15.1238C18.8291 15.9885 19.513 16.9949 20.0233 18.143C20.5194 19.3053 20.7675 20.5385 20.7675 21.8426C20.7675 22.041 20.7001 22.204 20.5655 22.3316C20.4308 22.4592 20.2713 22.5229 20.0871 22.5229Z" fill="#1C2D41"/>
</g>
<defs>
<clipPath id="clip0_5669_6597">
<rect width="21.7722" height="21.7722" fill="white" transform="matrix(1 0 0 -1 0.355469 22.0762)"/>
</clipPath>
</defs>
</svg>
