<svg width="23" height="22" viewBox="0 0 23 22" fill="none" xmlns="http://www.w3.org/2000/svg">
<g clip-path="url(#clip0_5669_5334)">
<path d="M3.25599 21.9199C2.689 21.9199 2.20707 21.7179 1.81018 21.314C1.41329 20.91 1.21484 20.4316 1.21484 19.8788V2.46529C1.21484 2.28102 1.24674 2.10738 1.31052 1.94437C1.37431 1.78136 1.46999 1.63608 1.59756 1.5085C1.72513 1.38093 1.87396 1.28171 2.04406 1.21084C2.21415 1.13997 2.39134 1.10453 2.5756 1.10453C2.7457 1.10453 2.9158 1.13997 3.08589 1.21084C3.25599 1.28171 3.40482 1.38093 3.53239 1.5085L21.6263 19.5811C21.7538 19.7229 21.8495 19.8752 21.9133 20.0382C21.9771 20.2013 22.009 20.3749 22.009 20.5592C22.009 20.7434 21.9771 20.9171 21.9133 21.0801C21.8495 21.2431 21.7538 21.3884 21.6263 21.5159C21.4987 21.6435 21.3499 21.7427 21.1798 21.8136C21.0097 21.8845 20.8325 21.9199 20.6482 21.9199C20.6482 21.9199 19.741 21.9199 17.9267 21.9199C16.1265 21.9199 14.135 21.9199 11.9521 21.9199C9.76921 21.9199 7.77768 21.9199 5.97751 21.9199C4.16316 21.9199 3.25599 21.9199 3.25599 21.9199ZM2.5756 19.8788C2.5756 20.063 2.63939 20.2225 2.76696 20.3572C2.89453 20.4918 3.05754 20.5592 3.25599 20.5592H20.6482L16.8636 16.7533L15.9706 17.625C15.9139 17.6959 15.843 17.749 15.758 17.7845C15.6729 17.8199 15.5879 17.8376 15.5028 17.8376C15.4036 17.8376 15.315 17.8199 15.2371 17.7845C15.1591 17.749 15.0847 17.6959 15.0138 17.625C14.8862 17.4974 14.8225 17.338 14.8225 17.1466C14.8225 16.9553 14.8862 16.7958 15.0138 16.6682L15.8855 15.7965L13.4617 13.3514L12.5687 14.2231C12.512 14.294 12.4411 14.3471 12.3561 14.3826C12.271 14.418 12.186 14.4357 12.1009 14.4357C12.0017 14.4357 11.9131 14.418 11.8352 14.3826C11.7572 14.3471 11.6828 14.294 11.6119 14.2231C11.4843 14.0955 11.4206 13.9361 11.4206 13.7447C11.4206 13.5534 11.4843 13.3939 11.6119 13.2663L12.4836 12.3946L10.0598 9.94948L9.16679 10.8212C9.11009 10.8921 9.03922 10.9452 8.95417 10.9807C8.86912 11.0161 8.78408 11.0338 8.69903 11.0338C8.59981 11.0338 8.51122 11.0161 8.43326 10.9807C8.3553 10.9452 8.28088 10.8921 8.21001 10.8212C8.13913 10.7645 8.08952 10.6936 8.06117 10.6086C8.03282 10.5235 8.01865 10.4385 8.01865 10.3535C8.01865 10.2542 8.03282 10.1656 8.06117 10.0877C8.08952 10.0097 8.13913 9.9353 8.21001 9.86443L9.08174 8.99269L6.65789 6.54757L5.76489 7.41931C5.70819 7.49018 5.63732 7.54334 5.55227 7.57877C5.46722 7.61421 5.38217 7.63193 5.29713 7.63193C5.1979 7.63193 5.10931 7.61421 5.03135 7.57877C4.95339 7.54334 4.87898 7.49018 4.8081 7.41931C4.73723 7.36261 4.68762 7.29174 4.65927 7.20669C4.63092 7.12164 4.61675 7.0366 4.61675 6.95155C4.61675 6.85233 4.63092 6.76374 4.65927 6.68578C4.68762 6.60781 4.73723 6.5334 4.8081 6.46253L5.67984 5.59079L2.5756 2.46529V19.8788ZM5.97751 17.8376C5.77906 17.8376 5.61606 17.7703 5.48848 17.6357C5.36091 17.501 5.29713 17.3415 5.29713 17.1573V11.0338C5.29713 10.8921 5.33256 10.7645 5.40344 10.6511C5.47431 10.5377 5.57353 10.4527 5.7011 10.396C5.74363 10.3818 5.78615 10.3712 5.82867 10.3641C5.8712 10.357 5.92081 10.3535 5.97751 10.3535C6.06255 10.3535 6.1476 10.3712 6.23265 10.4066C6.3177 10.442 6.38857 10.4881 6.44527 10.5448L12.5687 16.6682C12.6679 16.7675 12.7317 16.8844 12.7601 17.0191C12.7884 17.1537 12.7742 17.2848 12.7175 17.4124C12.675 17.54 12.5935 17.6427 12.473 17.7207C12.3525 17.7987 12.2285 17.8376 12.1009 17.8376H5.97751ZM10.4425 16.4769L6.65789 12.671V16.4769H10.4425Z" fill="#5C6872"/>
</g>
<defs>
<clipPath id="clip0_5669_5334">
<rect width="21.7722" height="21.7722" fill="white" transform="matrix(1 0 0 -1 0.724609 21.9414)"/>
</clipPath>
</defs>
</svg>
