<svg width="42" height="41" viewBox="0 0 42 41" fill="none" xmlns="http://www.w3.org/2000/svg">
<rect x="1.16476" y="0.680381" width="39.4621" height="39.4621" rx="4.76266" stroke="black" stroke-width="1.36076"/>
<g clip-path="url(#clip0_5669_5242)">
<path d="M26.2528 29.1372C25.273 29.1372 24.4327 28.7899 23.732 28.0954C23.0312 27.4008 22.6808 26.5574 22.6808 25.5652C22.6808 25.3916 22.6932 25.2179 22.718 25.0443C22.7429 24.8707 22.7801 24.697 22.8297 24.5234L18.4205 22.3281C18.0856 22.787 17.6639 23.1436 17.1554 23.3978C16.6469 23.6521 16.1074 23.7792 15.5368 23.7792C14.557 23.7792 13.7167 23.4319 13.016 22.7374C12.3152 22.0428 11.9648 21.1994 11.9648 20.2072C11.9648 19.2274 12.3152 18.3871 13.016 17.6863C13.7167 16.9856 14.557 16.6352 15.5368 16.6352C16.1694 16.6352 16.7585 16.7902 17.3042 17.1003C17.85 17.4104 18.2841 17.8383 18.6065 18.384L22.7553 16.7654C22.7304 16.6414 22.7118 16.5205 22.6994 16.4027C22.687 16.2848 22.6808 16.1639 22.6808 16.0399C22.6808 15.0601 23.0312 14.2198 23.732 13.519C24.4327 12.8183 25.273 12.4679 26.2528 12.4679C27.2327 12.4679 28.0729 12.8183 28.7737 13.519C29.4745 14.2198 29.8248 15.0601 29.8248 16.0399C29.8248 17.0321 29.4745 17.8755 28.7737 18.57C28.0729 19.2646 27.2327 19.6119 26.2528 19.6119C25.6203 19.6119 25.0312 19.4568 24.4854 19.1468C23.9397 18.8367 23.5056 18.415 23.1831 17.8817L19.0344 19.5003C19.0592 19.6119 19.0778 19.7297 19.0902 19.8537C19.1026 19.9778 19.1088 20.0956 19.1088 20.2072C19.1088 20.3933 19.0964 20.5731 19.0716 20.7467C19.0468 20.9204 19.0096 21.0878 18.96 21.249L23.3692 23.4629C23.7041 23.004 24.1258 22.6444 24.6343 22.3839C25.1428 22.1234 25.6823 21.9932 26.2528 21.9932C27.2327 21.9932 28.0729 22.3436 28.7737 23.0443C29.4745 23.7451 29.8248 24.5854 29.8248 25.5652C29.8248 26.5574 29.4745 27.4008 28.7737 28.0954C28.0729 28.7899 27.2327 29.1372 26.2528 29.1372ZM26.2528 23.1839C25.5955 23.1839 25.0343 23.4164 24.5692 23.8815C24.1041 24.3466 23.8715 24.9079 23.8715 25.5652C23.8715 26.2226 24.1041 26.7838 24.5692 27.2489C25.0343 27.714 25.5955 27.9465 26.2528 27.9465C26.9102 27.9465 27.4714 27.714 27.9365 27.2489C28.4016 26.7838 28.6342 26.2226 28.6342 25.5652C28.6342 24.9079 28.4016 24.3466 27.9365 23.8815C27.4714 23.4164 26.9102 23.1839 26.2528 23.1839ZM15.5368 17.8259C14.8795 17.8259 14.3183 18.0584 13.8532 18.5235C13.3881 18.9886 13.1555 19.5499 13.1555 20.2072C13.1555 20.8646 13.3881 21.4258 13.8532 21.8909C14.3183 22.356 14.8795 22.5885 15.5368 22.5885C16.1942 22.5885 16.7554 22.356 17.2205 21.8909C17.6856 21.4258 17.9182 20.8646 17.9182 20.2072C17.9182 19.5499 17.6856 18.9886 17.2205 18.5235C16.7554 18.0584 16.1942 17.8259 15.5368 17.8259ZM26.2528 13.6585C25.5955 13.6585 25.0343 13.8911 24.5692 14.3562C24.1041 14.8213 23.8715 15.3825 23.8715 16.0399C23.8715 16.6972 24.1041 17.2585 24.5692 17.7236C25.0343 18.1887 25.5955 18.4212 26.2528 18.4212C26.9102 18.4212 27.4714 18.1887 27.9365 17.7236C28.4016 17.2585 28.6342 16.6972 28.6342 16.0399C28.6342 15.3825 28.4016 14.8213 27.9365 14.3562C27.4714 13.8911 26.9102 13.6585 26.2528 13.6585Z" fill="black"/>
</g>
<defs>
<clipPath id="clip0_5669_5242">
<rect width="19.0507" height="19.0507" fill="white" transform="matrix(1 0 0 -1 11.3691 29.937)"/>
</clipPath>
</defs>
</svg>
