<svg width="17" height="18" viewBox="0 0 17 18" fill="none" xmlns="http://www.w3.org/2000/svg">
<path d="M0.999843 9.73197V12.247C0.999843 13.1363 1.35314 13.9893 1.98201 14.6181C2.61088 15.247 3.46382 15.6003 4.35318 15.6003H12.7365C13.6259 15.6003 14.4788 15.247 15.1077 14.6181C15.7365 13.9893 16.0898 13.1363 16.0898 12.247V10.235C16.0898 10.1016 16.0368 9.97362 15.9425 9.87929C15.8482 9.78496 15.7202 9.73197 15.5868 9.73197H0.999843ZM0.999843 9.73197V4.70197C0.999843 3.81261 1.35314 2.95967 1.98201 2.3308C2.61088 1.70193 3.46382 1.34863 4.35318 1.34863H8.54484M5.19151 15.6003L4.35318 17.277M11.8982 15.6003L12.7365 17.277" stroke="#3A3A3A" stroke-opacity="0.5" stroke-width="1.1875" stroke-linecap="round" stroke-linejoin="round"/>
<path d="M5.69333 5.5403H11.394C11.6715 5.5403 11.8936 5.31563 11.8635 5.03898C11.7411 3.92651 11.1735 1.34863 8.54366 1.34863C5.91381 1.34863 5.34626 3.92651 5.22386 5.03898C5.19368 5.31563 5.41584 5.5403 5.69333 5.5403Z" stroke="#3A3A3A" stroke-opacity="0.5" stroke-width="1.1875" stroke-linecap="round" stroke-linejoin="round"/>
</svg>
