<svg width="21" height="21" viewBox="0 0 21 21" fill="none" xmlns="http://www.w3.org/2000/svg">
<path d="M1.30732 10.9112V13.9285C1.30732 14.9955 1.73118 16.0188 2.48565 16.7732C3.24012 17.5277 4.2634 17.9516 5.33039 17.9516H15.3881C16.455 17.9516 17.4783 17.5277 18.2328 16.7732C18.9873 16.0188 19.4111 14.9955 19.4111 13.9285V11.5147C19.4111 11.3546 19.3476 11.2011 19.2344 11.0879C19.1212 10.9748 18.9677 10.9112 18.8077 10.9112H1.30732ZM1.30732 10.9112V4.87659C1.30732 3.8096 1.73118 2.78632 2.48565 2.03185C3.24012 1.27737 4.2634 0.853516 5.33039 0.853516H10.3592M6.33616 17.9516L5.33039 19.9631M14.3823 17.9516L15.3881 19.9631" stroke="#3A3A3A" stroke-width="1.42467" stroke-linecap="round" stroke-linejoin="round"/>
<path d="M6.93702 5.88235H13.7762C14.1092 5.88235 14.3757 5.61281 14.3395 5.2809C14.1926 3.94625 13.5117 0.853516 10.3566 0.853516C7.20154 0.853516 6.52064 3.94625 6.37379 5.2809C6.33759 5.61281 6.60412 5.88235 6.93702 5.88235Z" stroke="#3A3A3A" stroke-width="1.42467" stroke-linecap="round" stroke-linejoin="round"/>
</svg>
