<svg width="23" height="22" viewBox="0 0 23 22" fill="none" xmlns="http://www.w3.org/2000/svg">
<g clip-path="url(#clip0_5669_5322)">
<path d="M20.2312 22.3872C20.0328 22.3872 19.8698 22.3234 19.7422 22.1958C19.6146 22.0683 19.5508 21.9053 19.5508 21.7068V6.73845C19.5508 6.08642 19.4233 5.46983 19.1681 4.88867C18.913 4.30751 18.5692 3.80431 18.1369 3.37907C17.7046 2.95384 17.2049 2.61365 16.638 2.3585C16.0568 2.10336 15.4402 1.97579 14.7882 1.97579C14.1787 1.97579 13.6046 2.0821 13.066 2.29472C12.5273 2.50734 12.0489 2.80146 11.6308 3.17709C11.2126 3.55271 10.8618 3.98858 10.5783 4.48469C10.309 4.99498 10.1389 5.5407 10.068 6.12186C10.635 6.20691 11.1666 6.39118 11.6627 6.67467C12.1446 6.95816 12.5698 7.30898 12.9384 7.72713C13.3069 8.14528 13.5904 8.61659 13.7889 9.14105C14.0015 9.67968 14.1078 10.2396 14.1078 10.8207C14.1078 11.0192 14.0405 11.1822 13.9058 11.3098C13.7711 11.4373 13.6117 11.5011 13.4274 11.5011H5.26284C5.0644 11.5011 4.90139 11.4373 4.77382 11.3098C4.64625 11.1822 4.58246 11.0192 4.58246 10.8207C4.58246 10.2254 4.68169 9.66551 4.88013 9.14105C5.09275 8.60241 5.38333 8.12048 5.75187 7.69524C6.12041 7.27 6.55982 6.92272 7.07011 6.65341C7.56622 6.36992 8.10485 6.19273 8.68601 6.12186C8.77106 5.34226 8.98368 4.61935 9.32387 3.95315C9.67823 3.28694 10.1283 2.70578 10.674 2.20967C11.2197 1.71356 11.8399 1.32376 12.5344 1.04027C13.2431 0.756775 13.9944 0.615028 14.7882 0.615028C15.6245 0.615028 16.4183 0.778036 17.1695 1.10405C17.9066 1.43007 18.5515 1.86948 19.1043 2.42229C19.6571 2.9751 20.0966 3.62004 20.4226 4.35712C20.7486 5.10838 20.9116 5.90215 20.9116 6.73845V21.7068C20.9116 21.9053 20.8443 22.0683 20.7096 22.1958C20.5749 22.3234 20.4155 22.3872 20.2312 22.3872ZM12.662 10.1404C12.5061 9.37493 12.1163 8.72998 11.4926 8.20552C10.8689 7.68106 10.1531 7.41883 9.34513 7.41883C8.53718 7.41883 7.81782 7.68106 7.18705 8.20552C6.55628 8.72998 6.16293 9.37493 6.00701 10.1404H12.662ZM10.3657 14.5628C10.3657 14.8463 10.2629 15.0873 10.0574 15.2857C9.85187 15.4842 9.61445 15.5834 9.34513 15.5834C9.06164 15.5834 8.82067 15.4842 8.62222 15.2857C8.42378 15.0873 8.32456 14.8463 8.32456 14.5628C8.32456 14.2793 8.42378 14.0384 8.62222 13.8399C8.82067 13.6415 9.06164 13.5423 9.34513 13.5423C9.61445 13.5423 9.85187 13.6415 10.0574 13.8399C10.2629 14.0384 10.3657 14.2793 10.3657 14.5628ZM10.3657 20.0059C10.3657 20.2894 10.2629 20.5303 10.0574 20.7288C9.85187 20.9272 9.61445 21.0264 9.34513 21.0264C9.06164 21.0264 8.82067 20.9272 8.62222 20.7288C8.42378 20.5303 8.32456 20.2894 8.32456 20.0059C8.32456 19.7224 8.42378 19.4814 8.62222 19.283C8.82067 19.0845 9.06164 18.9853 9.34513 18.9853C9.61445 18.9853 9.85187 19.0845 10.0574 19.283C10.2629 19.4814 10.3657 19.7224 10.3657 20.0059ZM13.0872 15.5834C12.8604 15.5834 12.6584 15.5196 12.4813 15.392C12.3041 15.2645 12.18 15.0944 12.1092 14.8818C12.1092 14.8818 12.1092 14.8782 12.1092 14.8711C12.1092 14.864 12.1092 14.8605 12.1092 14.8605C12.0241 14.6054 12.0454 14.3538 12.173 14.1057C12.3005 13.8576 12.499 13.6911 12.7683 13.606C12.8108 13.5919 12.8604 13.5777 12.9171 13.5635C12.9738 13.5493 13.0305 13.5423 13.0872 13.5423C13.2998 13.5423 13.4947 13.6096 13.6719 13.7442C13.8491 13.8789 13.9731 14.0455 14.044 14.2439C14.1291 14.5132 14.1078 14.7754 13.9802 15.0306C13.8526 15.2857 13.6613 15.4558 13.4061 15.5409C13.3495 15.5551 13.2928 15.5657 13.2361 15.5728C13.1794 15.5799 13.1297 15.5834 13.0872 15.5834ZM14.7669 20.7713C14.5543 20.7713 14.3594 20.7075 14.1822 20.5799C14.005 20.4524 13.881 20.2823 13.8101 20.0697C13.8101 20.0697 13.8066 20.0661 13.7995 20.059C13.7924 20.0519 13.7889 20.0484 13.7889 20.0484C13.7038 19.7933 13.7251 19.5381 13.8526 19.283C13.9802 19.0278 14.1787 18.8577 14.448 18.7727C14.5047 18.7585 14.5578 18.7479 14.6074 18.7408C14.6571 18.7337 14.7102 18.7302 14.7669 18.7302C14.852 18.7302 14.9335 18.7372 15.0114 18.7514C15.0894 18.7656 15.1638 18.7939 15.2347 18.8365C15.3481 18.8932 15.4508 18.9747 15.543 19.081C15.6351 19.1873 15.7024 19.3042 15.745 19.4318C15.83 19.7011 15.8087 19.9598 15.6812 20.2079C15.5536 20.4559 15.3552 20.6225 15.0858 20.7075C15.0291 20.7359 14.976 20.7536 14.9264 20.7607C14.8768 20.7678 14.8236 20.7713 14.7669 20.7713ZM5.60303 15.5834C5.54634 15.5834 5.48964 15.5799 5.43294 15.5728C5.37624 15.5657 5.32663 15.5551 5.28411 15.5409C5.01479 15.4558 4.81634 15.2857 4.68877 15.0306C4.5612 14.7754 4.53994 14.5132 4.62499 14.2439C4.69586 14.0455 4.81989 13.8789 4.99707 13.7442C5.17425 13.6096 5.37624 13.5423 5.60303 13.5423C5.64556 13.5423 5.69517 13.5493 5.75187 13.5635C5.80857 13.5777 5.85818 13.5919 5.9007 13.606C6.17002 13.6911 6.36846 13.8576 6.49603 14.1057C6.62361 14.3538 6.64487 14.6054 6.55982 14.8605C6.55982 14.8605 6.55982 14.864 6.55982 14.8711C6.55982 14.8782 6.55982 14.8818 6.55982 14.8818C6.48895 15.0944 6.36492 15.2645 6.18774 15.392C6.01055 15.5196 5.81565 15.5834 5.60303 15.5834ZM3.90208 20.7713C3.85956 20.7713 3.80995 20.7678 3.75325 20.7607C3.69655 20.7536 3.64694 20.7359 3.60442 20.7075C3.46267 20.665 3.34219 20.6012 3.24296 20.5162C3.14374 20.4311 3.06578 20.3319 3.00908 20.2185C2.93821 20.0909 2.89923 19.9598 2.89214 19.8251C2.88506 19.6905 2.90277 19.5594 2.9453 19.4318C3.002 19.2192 3.12248 19.0491 3.30675 18.9215C3.49102 18.7939 3.68946 18.7302 3.90208 18.7302C3.95878 18.7302 4.01194 18.7337 4.06155 18.7408C4.11116 18.7479 4.15723 18.7585 4.19975 18.7727C4.19975 18.7727 4.20329 18.7727 4.21038 18.7727C4.21747 18.7727 4.22101 18.7727 4.22101 18.7727C4.49033 18.8577 4.68877 19.0243 4.81634 19.2723C4.94392 19.5204 4.96518 19.7791 4.88013 20.0484C4.80926 20.261 4.68523 20.4347 4.50805 20.5693C4.33087 20.704 4.12888 20.7713 3.90208 20.7713Z" fill="#5C6872"/>
</g>
<defs>
<clipPath id="clip0_5669_5322">
<rect width="21.7722" height="21.7722" fill="white" transform="matrix(1 0 0 -1 0.669922 21.9414)"/>
</clipPath>
</defs>
</svg>
