<svg width="97" height="96" viewBox="0 0 97 96" fill="none" xmlns="http://www.w3.org/2000/svg">
<path d="M1.09284 20.681C-0.305566 19.5776 1.03564 17.3891 2.65358 18.1343L16.2258 24.387C33.7512 32.461 54.526 27.4742 66.4769 12.325L75.7321 0.592864C76.8356 -0.805715 79.024 0.535494 78.2787 2.15361L72.026 15.7258C63.9521 33.2511 68.9389 54.0259 84.0881 65.9768L95.8203 75.2319C97.2188 76.3354 95.8776 78.5239 94.2595 77.7786L80.6873 71.5259C63.162 63.452 42.3872 68.4388 30.4363 83.5881L21.1811 95.3203C20.0777 96.7187 17.8892 95.3775 18.6344 93.7595L24.8871 80.1873C32.9611 62.6619 27.9744 41.8871 12.825 29.9362L1.09284 20.681Z" fill="#F2DA05"/>
</svg>
