<svg width="64" height="64" viewBox="0 0 64 64" fill="none" xmlns="http://www.w3.org/2000/svg">
<path d="M20.8641 63.3792C20.3595 64.3363 18.9043 63.777 19.1706 62.7284L21.4058 53.9314C24.2919 42.5721 19.0184 30.7149 8.65007 25.2507L0.620402 21.019C-0.336833 20.5144 0.222455 19.0592 1.27124 19.3256L10.0682 21.5607C21.4274 24.4468 33.2846 19.1733 38.7488 8.80497L42.9805 0.775302C43.4851 -0.181933 44.9403 0.377355 44.674 1.42614L42.4388 10.2231C39.5527 21.5823 44.8262 33.4395 55.1946 38.9037L63.2243 43.1354C64.1814 43.64 63.6221 45.0952 62.5735 44.8289L53.7765 42.5938C42.4172 39.7076 30.56 44.9811 25.0958 55.3495L20.8641 63.3792Z" fill="#F2994A"/>
</svg>
