<svg width="23" height="23" viewBox="0 0 23 23" fill="none" xmlns="http://www.w3.org/2000/svg">
<g clip-path="url(#clip0_5669_6627)">
<path d="M13.3218 17.884H13.7257C13.7399 17.884 13.7612 17.884 13.7895 17.884C13.8179 17.884 13.8462 17.884 13.8746 17.884C14.5975 17.884 15.2531 17.7069 15.8413 17.3525C16.4295 16.9981 16.8867 16.5233 17.2127 15.9279H17.234C17.3332 15.772 17.4111 15.6019 17.4678 15.4177C17.5245 15.2334 17.5529 15.0491 17.5529 14.8649C17.5529 14.7089 17.5352 14.5601 17.4997 14.4184C17.4643 14.2766 17.4182 14.1419 17.3615 14.0144V14.0356C17.2906 13.9222 17.1985 13.823 17.0851 13.738C16.9717 13.6529 16.8512 13.5821 16.7237 13.5254H16.7024L16.5748 13.4616C16.5748 13.4616 16.302 13.3269 15.7562 13.0576C15.2105 12.7883 14.8526 12.6253 14.6825 12.5686C14.6117 12.526 14.5372 12.4942 14.4593 12.4729C14.3813 12.4516 14.2927 12.441 14.1935 12.441C14.0092 12.441 13.8356 12.4871 13.6726 12.5792C13.5096 12.6713 13.3785 12.7954 13.2792 12.9513C13.2084 13.0647 13.1339 13.1781 13.056 13.2915C12.978 13.4049 12.9107 13.497 12.854 13.5679C12.1878 13.2702 11.5818 12.891 11.0361 12.4304C10.4904 11.9697 10.0191 11.4488 9.62219 10.8676L9.60093 10.8464L9.81355 10.655C9.8986 10.5841 9.97301 10.5097 10.0368 10.4317C10.1006 10.3538 10.1537 10.2652 10.1963 10.166C10.2388 10.0809 10.2707 9.99588 10.2919 9.91083C10.3132 9.82579 10.3238 9.73365 10.3238 9.63443C10.3238 9.53521 10.3132 9.43953 10.2919 9.34739C10.2707 9.25526 10.2388 9.16667 10.1963 9.08162C10.1679 9.02492 10.1041 8.88317 10.0049 8.65638C9.90568 8.42959 9.80646 8.18862 9.70724 7.93348L9.38831 7.16805C9.28909 6.92708 9.13671 6.72509 8.93118 6.56208C8.72565 6.39908 8.48822 6.29631 8.21891 6.25379C8.14804 6.23961 8.07716 6.22898 8.00629 6.2219C7.93542 6.21481 7.86454 6.21126 7.79367 6.21126C7.52435 6.21126 7.26921 6.26087 7.02824 6.3601C6.78727 6.45932 6.57466 6.60106 6.39039 6.78533C5.9935 7.1964 5.67811 7.68188 5.44423 8.24177C5.21035 8.80167 5.09341 9.39346 5.09341 10.0171C5.09341 10.3715 5.12885 10.7082 5.19972 11.0271C5.27059 11.346 5.36981 11.6543 5.49739 11.952V11.9307C5.85175 12.7245 6.29116 13.4545 6.81562 14.1207C7.34008 14.7869 7.93896 15.3787 8.61225 15.8961C9.28555 16.4134 10.012 16.8422 10.7916 17.1824C11.5854 17.5226 12.4146 17.7565 13.2792 17.884H13.3218ZM7.41096 7.76338C7.46765 7.73503 7.5279 7.70668 7.59168 7.67833C7.65547 7.64999 7.7228 7.63581 7.79367 7.63581C7.79367 7.63581 7.79721 7.63581 7.8043 7.63581C7.81139 7.63581 7.82202 7.63581 7.83619 7.63581H7.81493C7.82911 7.63581 7.83619 7.63581 7.83619 7.63581C7.83619 7.63581 7.84328 7.63581 7.85746 7.63581C7.89998 7.63581 7.9425 7.6429 7.98503 7.65707C8.02755 7.67125 8.07007 7.68542 8.1126 7.6996L8.43153 8.46502C8.53075 8.70599 8.62643 8.92924 8.71856 9.13477C8.8107 9.34031 8.87803 9.50686 8.92055 9.63443L8.5591 9.97462C8.4457 10.0738 8.35357 10.1943 8.28269 10.3361C8.21182 10.4778 8.17638 10.6337 8.17638 10.8038C8.17638 10.9031 8.19056 10.9987 8.21891 11.0909C8.24726 11.183 8.28269 11.2716 8.32522 11.3566C8.80715 12.1362 9.38831 12.8237 10.0687 13.419C10.7491 14.0144 11.5003 14.4892 12.3225 14.8436L12.365 14.8649C12.45 14.9216 12.5386 14.9641 12.6308 14.9924C12.7229 15.0208 12.8257 15.0349 12.939 15.0349C13.095 15.0349 13.2438 14.9995 13.3855 14.9286C13.5273 14.8578 13.6478 14.7656 13.747 14.6522C13.832 14.553 13.9277 14.429 14.034 14.2802C14.1403 14.1313 14.236 14.0073 14.3211 13.9081C14.4628 13.9648 14.7073 14.0782 15.0546 14.2483C15.4019 14.4184 15.7102 14.5672 15.9795 14.6948L16.1283 14.7798H16.2134C16.1992 14.8649 16.1779 14.9464 16.1496 15.0243C16.1212 15.1023 16.0858 15.1696 16.0433 15.2263C15.8307 15.6232 15.5259 15.9421 15.129 16.1831C14.7321 16.4241 14.2927 16.5445 13.8108 16.5445C13.7541 16.5445 13.6903 16.541 13.6194 16.5339C13.5486 16.5268 13.4777 16.5233 13.4068 16.5233H13.4281C12.691 16.3957 11.9894 16.1902 11.3231 15.9067C10.6428 15.609 10.0226 15.2476 9.46273 14.8223C8.90283 14.3971 8.39609 13.901 7.9425 13.334C7.50309 12.7812 7.12746 12.1788 6.81562 11.5267L6.79436 11.4842C6.69514 11.2716 6.61718 11.0483 6.56048 10.8145C6.50378 10.5806 6.47543 10.329 6.47543 10.0597C6.47543 9.62025 6.56048 9.2021 6.73058 8.80521C6.90067 8.40833 7.12746 8.06105 7.41096 7.76338ZM1.09617 21.371C1.082 21.4135 1.06782 21.456 1.05365 21.4986C1.03948 21.5411 1.03239 21.5907 1.03239 21.6474C1.03239 21.8317 1.09972 21.9911 1.23438 22.1258C1.36903 22.2604 1.5285 22.3278 1.71277 22.3278C1.75529 22.3278 1.79782 22.3242 1.84034 22.3171C1.88286 22.3101 1.9183 22.2994 1.94665 22.2853L5.56117 21.0521C6.3833 21.5624 7.2763 21.9592 8.24017 22.2427C9.20404 22.5262 10.2175 22.668 11.2806 22.668C12.769 22.668 14.1722 22.3916 15.4905 21.8388C16.8087 21.2718 17.9604 20.4993 18.9455 19.5212C19.9307 18.5432 20.7067 17.4021 21.2737 16.098C21.8549 14.794 22.1525 13.3978 22.1667 11.9095V11.8882C22.1667 10.3857 21.8832 8.97531 21.3162 7.65707C20.7493 6.33883 19.9732 5.18715 18.9881 4.20201C18.0029 3.21688 16.8441 2.44082 15.5117 1.87384C14.1935 1.29268 12.7831 1.0021 11.2806 1.0021C9.77811 1.0021 8.36774 1.29268 7.0495 1.87384C5.71709 2.44082 4.55832 3.21688 3.57318 4.20201C2.58805 5.18715 1.81199 6.33883 1.24501 7.65707C0.678023 8.97531 0.394531 10.3857 0.394531 11.8882C0.394531 11.9024 0.394531 11.9095 0.394531 11.9095C0.394531 11.9095 0.394531 11.9165 0.394531 11.9307C0.394531 13.0505 0.561083 14.1242 0.894186 15.1519C1.22729 16.1795 1.69151 17.1257 2.28684 17.9904L2.26558 17.9478L1.09617 21.371ZM1.75529 11.8882C1.75529 11.8882 1.75529 11.8811 1.75529 11.8669C1.75529 11.8528 1.75529 11.8386 1.75529 11.8244C1.75529 10.5062 2.00335 9.26589 2.49946 8.10357C2.99557 6.95543 3.67595 5.94903 4.5406 5.08438C5.40525 4.21973 6.41165 3.53935 7.55979 3.04324C8.72211 2.54713 9.96238 2.29907 11.2806 2.29907C12.5847 2.29907 13.8179 2.54713 14.9802 3.04324C16.1425 3.53935 17.1524 4.21973 18.01 5.08438C18.8676 5.94903 19.5444 6.95543 20.0405 8.10357C20.5508 9.26589 20.8059 10.5062 20.8059 11.8244C20.8059 13.1285 20.5508 14.3617 20.0405 15.524C19.5444 16.6721 18.8676 17.6785 18.01 18.5432C17.1524 19.4078 16.1425 20.0882 14.9802 20.5843C13.832 21.0946 12.5989 21.3497 11.2806 21.3497C11.2806 21.3497 11.2771 21.3497 11.27 21.3497C11.2629 21.3497 11.2594 21.3497 11.2594 21.3497C10.2955 21.3497 9.36705 21.2115 8.47405 20.9351C7.58105 20.6587 6.75892 20.2654 6.00767 19.7551L6.02893 19.7764C5.98641 19.748 5.93325 19.7232 5.86947 19.7019C5.80568 19.6807 5.73835 19.67 5.66748 19.67C5.62496 19.67 5.58598 19.6736 5.55054 19.6807C5.5151 19.6878 5.48321 19.6913 5.45486 19.6913L2.81839 20.5418L3.66886 18.0541C3.66886 18.0258 3.67241 17.9904 3.67949 17.9478C3.68658 17.9053 3.69012 17.8699 3.69012 17.8415C3.69012 17.7565 3.67949 17.6785 3.65823 17.6076C3.63697 17.5368 3.60508 17.473 3.56255 17.4163C2.99557 16.665 2.55261 15.8181 2.23369 14.8755C1.91476 13.9329 1.75529 12.9442 1.75529 11.9095C1.75529 11.9095 1.75529 11.9059 1.75529 11.8988C1.75529 11.8917 1.75529 11.8882 1.75529 11.8882Z" fill="#34C37A"/>
</g>
<defs>
<clipPath id="clip0_5669_6627">
<rect width="21.7722" height="21.7722" fill="white" transform="matrix(1 0 0 -1 0.394531 22.4126)"/>
</clipPath>
</defs>
</svg>
