<svg width="46" height="41" viewBox="0 0 46 41" fill="none" xmlns="http://www.w3.org/2000/svg">
<path opacity="0.3" d="M1.5 37C3.69978 37 5.72936 36.5 8 36.5C10.6447 36.5 12.6873 37.5 15.25 37.5C17.951 37.5 20.6781 38.5 23.5 38.5C25.3548 38.5 28.7132 38.2132 30 39.5" stroke="#1779F3" stroke-width="3" stroke-linecap="round"/>
<path d="M36.5 34.5C34.1835 32.4152 31.0598 30.0375 29.5 27C26.2198 20.6123 20.9491 17.8965 14.7222 14.5C12.5119 13.2944 7.39817 11.5973 6 9.5" stroke="#1779F3" stroke-width="3" stroke-linecap="round"/>
<path d="M43 30C43 25.0566 45.0424 19.8228 43.3889 15C42.4484 12.2569 42.5325 9.76772 41 7.25C39.8895 5.4256 38.7816 3.70883 37.5 2" stroke="#C3922E" stroke-width="3" stroke-linecap="round"/>
</svg>
