
<svg width="125" height="136" viewBox="0 0 125 136" fill="none" xmlns="http://www.w3.org/2000/svg">
<mask id="path-1-inside-1_3170_4217" fill="white">
<path d="M100.923 60.3534C101.892 59.9917 102.428 58.9496 102.128 57.9599C98.7364 46.7607 92.5046 37.02 84.2478 30.0527C75.5627 22.7239 65.0959 18.8511 54.3884 19.0044C43.6808 19.1576 33.2982 23.3289 24.7688 30.9041C16.6621 38.1039 10.6367 48.0173 7.47937 59.3069C7.19955 60.3075 7.76452 61.3419 8.74756 61.6782L8.92304 61.7382C10.0313 62.1173 11.2239 61.466 11.5485 60.3406C14.4791 50.1818 19.95 41.2654 27.2721 34.7624C35.0951 27.8144 44.6181 23.9886 54.439 23.848C64.2599 23.7074 73.86 27.2596 81.826 33.9815C89.2776 40.2693 94.931 49.02 98.0742 59.0845C98.4249 60.2074 99.6396 60.8326 100.742 60.4211L100.923 60.3534Z"/>
</mask>
<path d="M100.923 60.3534C101.892 59.9917 102.428 58.9496 102.128 57.9599C98.7364 46.7607 92.5046 37.02 84.2478 30.0527C75.5627 22.7239 65.0959 18.8511 54.3884 19.0044C43.6808 19.1576 33.2982 23.3289 24.7688 30.9041C16.6621 38.1039 10.6367 48.0173 7.47937 59.3069C7.19955 60.3075 7.76452 61.3419 8.74756 61.6782L8.92304 61.7382C10.0313 62.1173 11.2239 61.466 11.5485 60.3406C14.4791 50.1818 19.95 41.2654 27.2721 34.7624C35.0951 27.8144 44.6181 23.9886 54.439 23.848C64.2599 23.7074 73.86 27.2596 81.826 33.9815C89.2776 40.2693 94.931 49.02 98.0742 59.0845C98.4249 60.2074 99.6396 60.8326 100.742 60.4211L100.923 60.3534Z" stroke="#1779F3" stroke-width="20" mask="url(#path-1-inside-1_3170_4217)"/>
<mask id="path-2-inside-2_3170_4217" fill="white">
<path d="M101.127 74.8389C102.105 75.1852 102.659 76.2226 102.371 77.219C99.1336 88.435 93.0583 98.2533 84.9337 105.358C76.3849 112.834 66.0158 116.913 55.3433 116.999C44.6708 117.084 34.2548 113.172 25.6191 105.835C17.4108 98.8601 11.2203 89.1387 7.85169 77.974C7.55292 76.9838 8.09071 75.9421 9.0602 75.5816L9.24118 75.5143C10.3436 75.1044 11.5572 75.7308 11.9066 76.8539C15.0282 86.8875 20.6442 95.6209 28.0519 101.915C35.9726 108.645 45.5261 112.233 55.3149 112.155C65.1037 112.076 74.6141 108.335 82.4551 101.478C89.7906 95.0634 95.3047 86.2369 98.3077 76.15C98.6425 75.0254 99.8437 74.3842 100.95 74.776L101.127 74.8389Z"/>
</mask>
<path d="M101.127 74.8389C102.105 75.1852 102.659 76.2226 102.371 77.219C99.1336 88.435 93.0583 98.2533 84.9337 105.358C76.3849 112.834 66.0158 116.913 55.3433 116.999C44.6708 117.084 34.2548 113.172 25.6191 105.835C17.4108 98.8601 11.2203 89.1387 7.85169 77.974C7.55292 76.9838 8.09071 75.9421 9.0602 75.5816L9.24118 75.5143C10.3436 75.1044 11.5572 75.7308 11.9066 76.8539C15.0282 86.8875 20.6442 95.6209 28.0519 101.915C35.9726 108.645 45.5261 112.233 55.3149 112.155C65.1037 112.076 74.6141 108.335 82.4551 101.478C89.7906 95.0634 95.3047 86.2369 98.3077 76.15C98.6425 75.0254 99.8437 74.3842 100.95 74.776L101.127 74.8389Z" stroke="#C3922E" stroke-width="20" mask="url(#path-2-inside-2_3170_4217)"/>
<rect y="66" width="22" height="5" rx="2.5" fill="#C3922E"/>
<path d="M98 69L120 69" stroke="#1779F3" stroke-width="3" stroke-linecap="round" stroke-linejoin="round"/>
<path d="M113 62L120 69L113 76" stroke="#1779F3" stroke-width="3" stroke-linecap="round" stroke-linejoin="round"/>
</svg>
