<svg width="24" height="24" viewBox="0 0 24 24" fill="none" xmlns="http://www.w3.org/2000/svg">
<path d="M12.7128 2V4.68667L15.5852 3.14L16.2979 4.29333L12.7128 6.22667V10.8467L16.9893 8.53333V4.66667H18.4148V7.76667L20.9024 6.42L21.6151 7.58L19.1276 8.92L22 10.4733L21.2872 11.6267L17.7021 9.69333L13.4255 12L17.7021 14.3067L21.2872 12.3733L22 13.5267L19.1276 15.08L21.6151 16.42L20.9024 17.58L18.4148 16.2333V19.3333H16.9893V15.4667L12.7128 13.1533V17.7733L16.2979 19.7067L15.5852 20.86L12.7128 19.3133V22H11.2872V19.3133L8.41483 20.86L7.70207 19.7067L11.2872 17.7733V13.1533L7.01069 15.4667V19.3333H5.58517V16.2333L3.09765 17.58L2.38489 16.42L4.87242 15.08L2 13.5267L2.71276 12.3733L6.29793 14.3067L10.5745 12L6.29793 9.69333L2.71276 11.6267L2 10.4733L4.87242 8.92L2.38489 7.58L3.09765 6.42L5.58517 7.76667V4.66667H7.01069V8.53333L11.2872 10.8467V6.22667L7.70207 4.29333L8.41483 3.14L11.2872 4.68667V2H12.7128Z" fill="#363C45"/>
</svg>
