<svg width="13" height="14" viewBox="0 0 13 14" fill="none" xmlns="http://www.w3.org/2000/svg">
<path d="M0.733398 7.3125V9.1875C0.733398 9.85054 0.996791 10.4864 1.46563 10.9553C1.93447 11.4241 2.57036 11.6875 3.2334 11.6875H9.4834C10.1464 11.6875 10.7823 11.4241 11.2512 10.9553C11.72 10.4864 11.9834 9.85054 11.9834 9.1875V7.6875C11.9834 7.58804 11.9439 7.49266 11.8736 7.42233C11.8032 7.35201 11.7079 7.3125 11.6084 7.3125H0.733398ZM0.733398 7.3125V3.5625C0.733398 2.89946 0.996791 2.26357 1.46563 1.79473C1.93447 1.32589 2.57036 1.0625 3.2334 1.0625H6.3584M3.8584 11.6875L3.2334 12.9375M8.8584 11.6875L9.4834 12.9375" stroke="#363C45" stroke-width="1.1875" stroke-linecap="round" stroke-linejoin="round"/>
<path d="M4.23291 4.1875H8.48291C8.68978 4.1875 8.85541 4.02 8.83291 3.81375C8.74166 2.98437 8.31854 1.0625 6.35791 1.0625C4.39729 1.0625 3.97416 2.98437 3.88291 3.81375C3.86041 4.02 4.02604 4.1875 4.23291 4.1875Z" stroke="#363C45" stroke-width="1.1875" stroke-linecap="round" stroke-linejoin="round"/>
</svg>
