<svg width="14" height="12" viewBox="0 0 14 12" fill="none" xmlns="http://www.w3.org/2000/svg">
<path d="M12.1418 4.93882V1.75545C12.1411 1.16971 11.6664 0.695028 11.0807 0.694336H3.6528C3.06705 0.695028 2.59238 1.16971 2.59168 1.75545V4.93882C1.71304 4.93984 1.00102 5.65186 1 6.5305L1 10.775C1 10.9706 1.10768 11.1504 1.28017 11.2427C1.45271 11.335 1.66202 11.3249 1.82482 11.2164L2.59168 10.7052V11.3055H3.6528V10.2444H11.0807V11.3055H12.1418V10.7052L12.9086 11.2164C13.0714 11.325 13.2807 11.3351 13.4532 11.2428C13.6257 11.1504 13.7334 10.9707 13.7335 10.775V6.5305C13.7324 5.65186 13.0204 4.93984 12.1418 4.93882ZM3.6528 1.75545H11.0807V4.93882H10.0195V3.34714C10.0188 2.76139 9.54416 2.28671 8.95841 2.28601H5.77505C5.18929 2.28671 4.71462 2.76139 4.71392 3.34714V4.93882H3.6528V1.75545ZM8.95841 4.93882H5.77505V3.34714H8.95841V4.93882ZM12.6723 9.78363L11.9055 9.27244C11.8183 9.2143 11.7159 9.18328 11.6112 9.1833H3.12224C3.0175 9.1833 2.91508 9.21432 2.82792 9.27242L2.06112 9.78363V6.5305C2.06145 6.23761 2.2988 6.00027 2.59168 5.99994H12.1418C12.4347 6.00027 12.672 6.23761 12.6723 6.5305V9.78363Z" fill="#363C45" stroke="white" stroke-width="0.1"/>
</svg>
