<svg width="24" height="24" viewBox="0 0 24 24" fill="none" xmlns="http://www.w3.org/2000/svg">
<path d="M19.5 13.5C19.5 13.6989 19.421 13.8897 19.2803 14.0303C19.1397 14.171 18.9489 14.25 18.75 14.25C18.5511 14.25 18.3603 14.171 18.2197 14.0303C18.079 13.8897 18 13.6989 18 13.5C18 13.3011 18.079 13.1103 18.2197 12.9697C18.3603 12.829 18.5511 12.75 18.75 12.75C18.9489 12.75 19.1397 12.829 19.2803 12.9697C19.421 13.1103 19.5 13.3011 19.5 13.5ZM5.25 12.75C5.05109 12.75 4.86032 12.829 4.71967 12.9697C4.57902 13.1103 4.5 13.3011 4.5 13.5C4.5 13.6989 4.57902 13.8897 4.71967 14.0303C4.86032 14.171 5.05109 14.25 5.25 14.25C5.44891 14.25 5.63968 14.171 5.78033 14.0303C5.92098 13.8897 6 13.6989 6 13.5C6 13.3011 5.92098 13.1103 5.78033 12.9697C5.63968 12.829 5.44891 12.75 5.25 12.75ZM20.775 9L21.0825 9.84C21.5223 10.1873 21.8782 10.6293 22.1236 11.1331C22.369 11.6369 22.4977 12.1896 22.5 12.75V19.5C22.5 19.8978 22.342 20.2794 22.0607 20.5607C21.7794 20.842 21.3978 21 21 21H19.5C19.1022 21 18.7206 20.842 18.4393 20.5607C18.158 20.2794 18 19.8978 18 19.5V18H6V19.5C6 19.8978 5.84196 20.2794 5.56066 20.5607C5.27936 20.842 4.89782 21 4.5 21H3C2.60218 21 2.22064 20.842 1.93934 20.5607C1.65804 20.2794 1.5 19.8978 1.5 19.5V12.75C1.5 11.5725 2.0625 10.53 2.9175 9.84L3.225 9H1.5V7.5H3.75V7.6125L5.115 3.975C5.22182 3.6891 5.41332 3.44259 5.66391 3.26837C5.91451 3.09416 6.21229 3.00053 6.5175 3H17.4825C18.105 3 18.6675 3.39 18.885 3.975L20.25 7.6125V7.5H22.5V9H20.775ZM4.5 18H3V19.5H4.5V18ZM21 18H19.5V19.5H21V18ZM21 16.5V12.75C21 12.1533 20.7629 11.581 20.341 11.159C19.919 10.7371 19.3467 10.5 18.75 10.5H5.25C4.65326 10.5 4.08097 10.7371 3.65901 11.159C3.23705 11.581 3 12.1533 3 12.75V16.5H21ZM18.75 9H19.17L17.475 4.5H6.5175L4.83 9H18.75ZM7.5 14.25H16.5V12.75H7.5V14.25Z" fill="#363C45"/>
</svg>
