<svg width="12" height="13" viewBox="0 0 12 13" fill="none" xmlns="http://www.w3.org/2000/svg">
<path d="M8.54181 3.55713H1.17644C0.871293 3.55713 0.624023 3.80436 0.624023 4.10953V11.475C0.624023 11.7801 0.871293 12.0274 1.17644 12.0274H8.54181C8.84696 12.0274 9.0942 11.7801 9.0942 11.475V4.10953C9.0942 3.80436 8.84696 3.55713 8.54181 3.55713ZM7.9894 10.9226H1.72883V4.66192H7.9894V10.9226Z" fill="#363C45"/>
<path d="M11.6215 10.2434H11.0223V3.79645H11.6215C11.6657 3.79645 11.7056 3.76983 11.7225 3.72885C11.7396 3.68786 11.7303 3.6409 11.6988 3.60947L10.7316 2.6422C10.6888 2.59941 10.6193 2.59941 10.5766 2.6422L9.60932 3.60947C9.57785 3.64092 9.5685 3.68786 9.58557 3.72885C9.6025 3.76983 9.64241 3.79645 9.68666 3.79645H10.2858V10.2434H9.68666C9.64241 10.2434 9.6025 10.27 9.58557 10.311C9.5685 10.352 9.57785 10.399 9.60932 10.4304L10.5766 11.3977C10.6193 11.4405 10.6888 11.4405 10.7316 11.3977L11.6988 10.4304C11.7303 10.399 11.7396 10.352 11.7225 10.311C11.7056 10.27 11.6657 10.2434 11.6215 10.2434Z" fill="#363C45"/>
<path d="M2.221 3.07165C2.25246 3.10311 2.2994 3.11247 2.34041 3.09538C2.38141 3.0785 2.40803 3.03857 2.40803 2.99432V2.39517H8.8549V2.99432C8.8549 3.03857 8.8815 3.0785 8.92249 3.09538C8.96349 3.11247 9.01042 3.10311 9.0419 3.07165L10.0091 2.10439C10.052 2.06157 10.052 1.99215 10.0091 1.94937L9.0419 0.982133C9.01042 0.950653 8.96351 0.941298 8.92249 0.958382C8.8815 0.975286 8.8549 1.01519 8.8549 1.05944V1.65864H2.40803V1.05944C2.40803 1.01522 2.38143 0.975286 2.34041 0.958382C2.29942 0.941298 2.25246 0.950653 2.22101 0.982133L1.25378 1.94937C1.21098 1.99215 1.21098 2.06157 1.25378 2.1044L2.221 3.07165Z" fill="#363C45"/>
</svg>
