<svg width="11" height="12" viewBox="0 0 11 12" fill="none" xmlns="http://www.w3.org/2000/svg">
<path d="M1.00021 6.42446V8.0518C1.00021 8.62726 1.21924 9.17916 1.60912 9.58607C1.99899 9.99298 2.52778 10.2216 3.07915 10.2216H8.27652C8.82789 10.2216 9.35668 9.99298 9.74656 9.58607C10.1364 9.17916 10.3555 8.62726 10.3555 8.0518V6.74993C10.3555 6.66361 10.3226 6.58083 10.2641 6.51979C10.2057 6.45875 10.1263 6.42446 10.0436 6.42446H1.00021ZM1.00021 6.42446V3.16978C1.00021 2.59432 1.21924 2.04243 1.60912 1.63552C1.99899 1.2286 2.52778 1 3.07915 1H5.67784M3.59889 10.2216L3.07915 11.3065M7.75678 10.2216L8.27652 11.3065" stroke="#363C45" stroke-width="1.1875" stroke-linecap="round" stroke-linejoin="round"/>
<path d="M3.91034 3.71224H7.44455C7.61658 3.71224 7.75431 3.56686 7.7356 3.38786C7.65972 2.66803 7.30786 1 5.67744 1C4.04703 1 3.69517 2.66803 3.61928 3.38786C3.60057 3.56686 3.7383 3.71224 3.91034 3.71224Z" stroke="#363C45" stroke-width="1.1875" stroke-linecap="round" stroke-linejoin="round"/>
</svg>
