<svg width="16" height="19" viewBox="0 0 16 19" fill="none" xmlns="http://www.w3.org/2000/svg">
<path d="M14.6668 7.33341C14.6668 11.0151 8.00016 17.3334 8.00016 17.3334C8.00016 17.3334 1.3335 11.0151 1.3335 7.33341C1.3335 5.5653 2.03588 3.86961 3.28612 2.61937C4.53636 1.36913 6.23205 0.666748 8.00016 0.666748C9.76827 0.666748 11.464 1.36913 12.7142 2.61937C13.9645 3.86961 14.6668 5.5653 14.6668 7.33341V7.33341Z" stroke="#1779F3" stroke-width="1.25"/>
<path d="M8 8C8.26522 8 8.51957 7.89464 8.70711 7.70711C8.89464 7.51957 9 7.26522 9 7C9 6.73478 8.89464 6.48043 8.70711 6.29289C8.51957 6.10536 8.26522 6 8 6C7.73478 6 7.48043 6.10536 7.29289 6.29289C7.10536 6.48043 7 6.73478 7 7C7 7.26522 7.10536 7.51957 7.29289 7.70711C7.48043 7.89464 7.73478 8 8 8Z" fill="#1779F3" stroke="#1779F3" stroke-width="1.25" stroke-linecap="round" stroke-linejoin="round"/>
</svg>
