<svg width="88" height="83" viewBox="0 0 88 83" fill="none" xmlns="http://www.w3.org/2000/svg">
<mask id="mask0_1543_4361" style="mask-type:luminance" maskUnits="userSpaceOnUse" x="48" y="7" width="32" height="53">
<path d="M48.1367 7.62305H79.021V59.741H48.1367V7.62305Z" fill="white"/>
</mask>
<g mask="url(#mask0_1543_4361)">
<path d="M58.3434 7.62305L48.1904 15.1817L53.3153 18.9998L58.3356 15.2613L72.9153 26.1603V59.7002H79.0206V23.0801L58.3434 7.62305Z" fill="#1779F3"/>
</g>
<path d="M41.4492 20.2017L39.4785 21.6699L44.6033 25.4861L46.5759 24.0179L41.4492 20.2017Z" fill="#AA7422"/>
<path d="M32.9461 51.0068H26.8408V53.819H32.9461V51.0068Z" fill="#AA7422"/>
<mask id="mask1_1543_4361" style="mask-type:luminance" maskUnits="userSpaceOnUse" x="4" y="7" width="63" height="32">
<path d="M4.76172 7.58984H66.7121V38.9041H4.76172V7.58984Z" fill="white"/>
</mask>
<g mask="url(#mask1_1543_4361)">
<path d="M34.8087 7.62305L4.76172 30.0872L8.40711 35.0065L34.8164 15.2613L51.6258 27.78L66.3118 38.714V31.0816L34.8087 7.62305Z" fill="#C3922E"/>
</g>
<mask id="mask2_1543_4361" style="mask-type:luminance" maskUnits="userSpaceOnUse" x="38" y="37" width="29" height="23">
<path d="M38.9238 37.0728H66.3329V59.9506H38.9238V37.0728Z" fill="white"/>
</mask>
<g mask="url(#mask2_1543_4361)">
<path d="M60.2049 53.8196H38.9688V59.9508H66.3121V41.6504L60.2049 37.104V53.8196Z" fill="#C3922E"/>
</g>
<path d="M60.2041 34.1675V37.1039L66.3113 41.6504V38.7139L60.2041 34.1675Z" fill="#AA7422"/>
<mask id="mask3_1543_4361" style="mask-type:luminance" maskUnits="userSpaceOnUse" x="13" y="21" width="32" height="39">
<path d="M13.5898 21.6543H44.6057V59.9504H13.5898V21.6543Z" fill="white"/>
</mask>
<g mask="url(#mask3_1543_4361)">
<path d="M39.4786 21.6699L26.8406 31.0813V53.8193H19.7586V26.5193L13.6533 31.0832V59.9505H32.9459V34.1673L44.6034 25.4861L39.4786 21.6699Z" fill="#C3922E"/>
</g>
<path d="M19.7587 14.793H13.6534L11.4062 18.0285L13.6534 16.6011V21.0892L19.7587 16.5234V14.793Z" fill="#C3922E"/>
<path d="M19.7586 18.8734V16.5234L13.6533 21.0893V23.4392L19.7586 18.8734Z" fill="#AA7422"/>
<path d="M26.2994 70.0793H23.3135V68.6577H30.9562V70.0793H27.9703V77.7079H26.2994V70.0793Z" fill="black"/>
<path d="M38.9728 76.3018V77.7079H32.2119V68.6577H38.7949V70.0716H33.8905V72.4176H38.2379V73.8004H33.8905V76.3018H38.9728Z" fill="black"/>
<path d="M46.7362 77.7079L44.8952 75.0588C44.8178 75.0705 44.7018 75.0744 44.5471 75.0744H42.5126V77.7079H40.834V68.6577H44.5471C45.3245 68.6577 46.0033 68.7878 46.5815 69.0461C47.1636 69.3064 47.6104 69.6754 47.9198 70.157C48.2292 70.6386 48.3839 71.2135 48.3839 71.8816C48.3839 72.5613 48.2157 73.1459 47.8811 73.6372C47.5504 74.1305 47.0785 74.4956 46.4655 74.7326L48.5309 77.7079H46.7362ZM46.6976 71.8816C46.6976 71.3028 46.5061 70.8562 46.1251 70.5454C45.748 70.2347 45.1969 70.0793 44.4697 70.0793H42.5126V73.6838H44.4697C45.1969 73.6838 45.748 73.5285 46.1251 73.2177C46.5061 72.9031 46.6976 72.4564 46.6976 71.8816Z" fill="black"/>
<path d="M56.1425 77.7079L54.3014 75.0588C54.2241 75.0705 54.108 75.0744 53.9533 75.0744H51.9189V77.7079H50.2402V68.6577H53.9533C54.7307 68.6577 55.4095 68.7878 55.9878 69.0461C56.5699 69.3064 57.0166 69.6754 57.326 70.157C57.6355 70.6386 57.7902 71.2135 57.7902 71.8816C57.7902 72.5613 57.6219 73.1459 57.2874 73.6372C56.9567 74.1305 56.4848 74.4956 55.8717 74.7326L57.9371 77.7079H56.1425ZM56.1038 71.8816C56.1038 71.3028 55.9124 70.8562 55.5314 70.5454C55.1543 70.2347 54.6031 70.0793 53.876 70.0793H51.9189V73.6838H53.876C54.6031 73.6838 55.1543 73.5285 55.5314 73.2177C55.9124 72.9031 56.1038 72.4564 56.1038 71.8816Z" fill="black"/>
<path d="M65.4956 75.6104H60.9858L60.1039 77.7079H58.3789L62.4324 68.6577H64.08L68.1489 77.7079H66.393L65.4956 75.6104ZM64.9387 74.2975L63.2446 70.3434L61.5582 74.2975H64.9387Z" fill="black"/>
</svg>
