<svg width="22" height="20" viewBox="0 0 22 20" fill="none" xmlns="http://www.w3.org/2000/svg">
<path id="Vector" d="M21.7893 17.8125C20.4299 15.5453 18.3193 13.7881 15.7992 12.825C17.0361 11.9278 17.9497 10.6768 18.4107 9.24944C18.8717 7.82205 18.8567 6.29055 18.3678 4.87188C17.8789 3.4532 16.9408 2.21928 15.6866 1.3449C14.4323 0.470516 12.9254 0 11.3793 0C9.83317 0 8.32626 0.470516 7.07199 1.3449C5.81773 2.21928 4.8797 3.4532 4.39077 4.87188C3.90185 6.29055 3.88683 7.82205 4.34783 9.24944C4.80882 10.6768 5.72247 11.9278 6.95936 12.825C4.4392 13.7881 2.32868 15.5453 0.96921 17.8125C0.814969 18.0711 0.77325 18.3783 0.853231 18.6667C0.933212 18.955 1.12834 19.2008 1.39569 19.35C1.66305 19.4992 1.98072 19.5395 2.27883 19.4622C2.57694 19.3848 2.83107 19.1961 2.98531 18.9375C3.83607 17.5124 5.05965 16.3291 6.53309 15.5063C8.00653 14.6836 9.67792 14.2504 11.3793 14.2504C13.0806 14.2504 14.752 14.6836 16.2255 15.5063C17.6989 16.3291 18.9225 17.5124 19.7732 18.9375C19.8761 19.108 20.0232 19.2496 20.2 19.3482C20.3768 19.4469 20.5772 19.4992 20.7813 19.5C20.9856 19.5016 21.1865 19.4498 21.3629 19.35C21.4953 19.2762 21.6114 19.1779 21.7045 19.0606C21.7976 18.9434 21.866 18.8095 21.9056 18.6667C21.9452 18.524 21.9553 18.375 21.9354 18.2284C21.9154 18.0819 21.8658 17.9405 21.7893 17.8125ZM6.33902 7.125C6.33902 6.16082 6.63463 5.21829 7.18846 4.4166C7.74229 3.61491 8.52947 2.99006 9.45045 2.62109C10.3714 2.25211 11.3849 2.15557 12.3626 2.34367C13.3403 2.53177 14.2384 2.99607 14.9433 3.67785C15.6482 4.35964 16.1282 5.22828 16.3227 6.17393C16.5172 7.11959 16.4173 8.09979 16.0359 8.99058C15.6544 9.88137 15.0084 10.6427 14.1795 11.1784C13.3506 11.7141 12.3761 12 11.3793 12C10.0425 12 8.76051 11.4864 7.81528 10.5721C6.87004 9.65791 6.33902 8.41793 6.33902 7.125Z" fill="#424242"/>
</svg>
