<svg width="117" height="75" viewBox="0 0 117 75" fill="none" xmlns="http://www.w3.org/2000/svg">
<mask id="mask0_3339_4551" style="mask-type:alpha" maskUnits="userSpaceOnUse" x="0" y="0" width="117" height="75">
<rect width="117" height="75" fill="#D9D9D9"/>
</mask>
<g mask="url(#mask0_3339_4551)">
<rect width="138.192" height="25.5618" transform="translate(117.866 64.3538) rotate(-151)" fill="#C3922E"/>
<path d="M50.2766 19.0982L54.4072 11.6465L57.5664 13.3976C57.9092 13.5876 58.1853 13.8321 58.3946 14.1311C58.6039 14.43 58.7476 14.7567 58.8256 15.1109C58.9106 15.469 58.9312 15.828 58.8872 16.1878C58.8433 16.5476 58.736 16.8814 58.5653 17.1893C58.3326 17.6091 58.0136 17.9537 57.6083 18.2229C57.2029 18.4921 56.7629 18.6507 56.2881 18.6985C55.8134 18.7464 55.3417 18.6404 54.8729 18.3805L53.1096 17.4031L51.725 19.9011L50.2766 19.0982ZM53.8136 16.1332L55.4929 17.064C55.6678 17.161 55.8524 17.1993 56.0466 17.1789C56.2408 17.1585 56.4304 17.0806 56.6152 16.9452C56.8038 16.8029 56.9641 16.6127 57.096 16.3748C57.2395 16.1159 57.3127 15.8684 57.3156 15.6322C57.3254 15.3998 57.2786 15.1955 57.1751 15.0192C57.0786 14.8468 56.9429 14.7121 56.768 14.6152L55.1517 13.7192L53.8136 16.1332ZM56.8158 22.7229L60.9464 15.2712L64.2419 17.0979C64.5848 17.288 64.8609 17.5325 65.0702 17.8314C65.2865 18.1343 65.4337 18.4628 65.5117 18.8171C65.5967 19.1752 65.6138 19.5322 65.5628 19.8881C65.5189 20.248 65.4116 20.5818 65.2409 20.8897C65.0664 21.2045 64.8417 21.4779 64.5669 21.7097C64.3029 21.9384 64.0093 22.1049 63.6862 22.2094C63.363 22.3138 63.0321 22.3499 62.6933 22.3175L62.8402 26.0623L61.2449 25.178L61.0972 21.8307L59.6488 21.0279L58.2642 23.5258L56.8158 22.7229ZM60.3527 19.7579L62.1684 20.7644C62.3504 20.8652 62.5404 20.9019 62.7385 20.8746C62.9405 20.8402 63.1339 20.7553 63.3187 20.6199C63.5035 20.4845 63.658 20.3049 63.7821 20.081C63.9139 19.8431 63.9794 19.6095 63.9784 19.3803C63.9813 19.1441 63.9348 18.9308 63.8391 18.7406C63.7503 18.5542 63.6185 18.4125 63.4435 18.3155L61.6908 17.344L60.3527 19.7579ZM69.6739 28.1901L68.9699 29.4601L63.7957 26.5919L67.9263 19.1402L73.006 21.956L72.3021 23.2259L68.6707 21.213L67.6759 23.0077L70.814 24.7472L70.1624 25.9227L67.0243 24.1832L65.948 26.1248L69.6739 28.1901ZM76.176 33.4544L78.887 28.5636L74.9581 31.1467L74.1499 30.6987L74.2585 25.9979L71.5475 30.8888L70.0991 30.086L74.2297 22.6342L75.783 23.4952L75.6367 28.9571L80.2121 25.9503L81.7549 26.8055L77.6243 34.2573L76.176 33.4544ZM79.1801 35.1197L83.3107 27.6679L84.7591 28.4707L80.6285 35.9225L79.1801 35.1197ZM85.3132 38.5879C84.7185 38.2582 84.2655 37.8791 83.9543 37.4505C83.6539 37.0187 83.4713 36.5562 83.4063 36.0628C83.3484 35.5734 83.3821 35.0753 83.5075 34.5685C83.6367 34.0548 83.8352 33.5565 84.1028 33.0737L86.2088 29.2744L87.6572 30.0772L85.5512 33.8766C85.3805 34.1844 85.2417 34.5008 85.1348 34.8257C85.0388 35.1475 84.9967 35.4626 85.0087 35.7711C85.0206 36.0796 85.1052 36.3643 85.2624 36.6252C85.4196 36.8861 85.6697 37.1116 86.0125 37.3017C86.3623 37.4956 86.6896 37.5901 86.9942 37.5851C87.3096 37.577 87.5978 37.4944 87.8588 37.3372C88.1267 37.1839 88.3716 36.9812 88.5936 36.7292C88.8195 36.4703 89.0158 36.1904 89.1826 35.8895L91.2886 32.0901L92.7265 32.8872L90.6205 36.6865C90.3373 37.1973 90.0087 37.6417 89.6345 38.0197C89.2674 38.4015 88.8558 38.6902 88.3999 38.8857C87.9548 39.078 87.4716 39.1578 86.9502 39.1248C86.4326 39.0849 85.887 38.906 85.3132 38.5879ZM96.1316 44.5161L98.8427 39.6252L94.9138 42.2083L94.1056 41.7603L94.2142 37.0596L91.5031 41.9504L90.0548 41.1476L94.1854 33.6958L95.7387 34.5569L95.5924 40.0187L100.168 37.0119L101.711 37.8671L97.58 45.3189L96.1316 44.5161Z" fill="white"/>
<g clip-path="url(#clip0_3339_4551)">
<path d="M41.1471 8.09175L40.7318 8.84096C40.6755 8.94241 40.664 9.05077 40.697 9.16602C40.7301 9.28128 40.7974 9.36704 40.8989 9.4233L42.7728 10.462L41.7346 12.335C41.6783 12.4365 41.6668 12.5449 41.6998 12.6601C41.7329 12.7754 41.8002 12.8611 41.9017 12.9174L42.6513 13.3329C42.7528 13.3891 42.8612 13.4008 42.9764 13.3677C43.0917 13.3347 43.1775 13.2675 43.2337 13.166L44.2719 11.293L46.1458 12.3317C46.2473 12.388 46.3557 12.3996 46.471 12.3666C46.5862 12.3335 46.672 12.2663 46.7282 12.1649L47.1435 11.4156C47.1998 11.3142 47.2114 11.2058 47.1783 11.0906C47.1452 10.9753 47.0779 10.8896 46.9764 10.8333L45.1025 9.79458L46.1407 7.92156C46.197 7.82011 46.2086 7.71175 46.1755 7.59649C46.1424 7.48124 46.0751 7.39548 45.9736 7.33921L45.224 6.92373C45.1225 6.86746 45.0142 6.85584 44.8989 6.88887C44.7836 6.92189 44.6979 6.98913 44.6416 7.09059L43.6034 8.96361L41.7295 7.92489C41.628 7.86863 41.5196 7.85701 41.4043 7.89003C41.2891 7.92305 41.2033 7.99029 41.1471 8.09175ZM37.883 10.4449L40.9977 4.82585C41.255 4.3615 41.6401 4.05589 42.1527 3.90902C42.6654 3.76214 43.154 3.81747 43.6186 4.07498L49.2403 7.19113C49.7048 7.44865 50.0107 7.8337 50.1578 8.34628C50.3049 8.85887 50.2497 9.34734 49.9923 9.81169L46.8777 15.4307C46.6203 15.8951 46.2352 16.2007 45.7226 16.3476C45.2099 16.4945 44.7213 16.4391 44.2567 16.1816L38.6351 13.0655C38.1705 12.808 37.8646 12.4229 37.7175 11.9103C37.5704 11.3977 37.6256 10.9093 37.883 10.4449Z" fill="white"/>
</g>
</g>
<defs>
<clipPath id="clip0_3339_4551">
<rect width="10.2884" height="11.9925" fill="white" transform="matrix(-0.87462 -0.48481 -0.48481 0.87462 51.3438 7.37793)"/>
</clipPath>
</defs>
</svg>
