<svg width="25" height="24" viewBox="0 0 25 24" fill="none" xmlns="http://www.w3.org/2000/svg">
<path d="M12.6596 10.87C12.5596 10.86 12.4396 10.86 12.3296 10.87C9.94957 10.79 8.05957 8.84 8.05957 6.44C8.05957 3.99 10.0396 2 12.4996 2C14.9496 2 16.9396 3.99 16.9396 6.44C16.9296 8.84 15.0396 10.79 12.6596 10.87Z" stroke="#7D7F88" stroke-width="1.5" stroke-linecap="round" stroke-linejoin="round"/>
<path d="M7.65973 14.56C5.23973 16.18 5.23973 18.82 7.65973 20.43C10.4097 22.27 14.9197 22.27 17.6697 20.43C20.0897 18.81 20.0897 16.17 17.6697 14.56C14.9297 12.73 10.4197 12.73 7.65973 14.56Z" stroke="#7D7F88" stroke-width="1.5" stroke-linecap="round" stroke-linejoin="round"/>
</svg>
