<svg width="18" height="16" viewBox="0 0 18 16" fill="none" xmlns="http://www.w3.org/2000/svg">
<path d="M0.0283203 7.56547L3.16499 10.6788L6.27827 7.54209L3.77829 7.55144L3.7666 4.42646C3.76269 3.3827 4.59081 2.54836 5.63457 2.54446L12.6267 2.5183C12.89 3.2411 13.5806 3.76473 14.3891 3.76171C15.4173 3.75786 16.261 2.90783 16.2571 1.87971C16.2533 0.851579 15.4032 0.00788478 14.3751 0.0117319C13.5666 0.0147574 12.8799 0.543546 12.622 1.2683L5.62989 1.29447C3.91117 1.3009 2.51017 2.71242 2.51661 4.43114L2.5283 7.55612L0.0283203 7.56547ZM1.29936 13.1858C1.3032 14.2139 2.15323 15.0576 3.18136 15.0537C3.9899 15.0507 4.67659 14.5219 4.93448 13.7972L11.9266 13.771C13.6453 13.7646 15.0463 12.3531 15.0399 10.6343L15.0282 7.50934L17.5282 7.49999L14.3915 4.3867L11.2782 7.52338L13.7782 7.51402L13.7899 10.639C13.7938 11.6828 12.9657 12.5171 11.9219 12.521L4.9298 12.5472C4.66649 11.8244 3.97587 11.3007 3.16733 11.3038C2.1392 11.3076 1.29551 12.1576 1.29936 13.1858ZM2.54935 13.1811C2.54803 12.8285 2.81943 12.5551 3.172 12.5538C3.52458 12.5524 3.79802 12.8238 3.79934 13.1764C3.80066 13.529 3.52926 13.8024 3.17668 13.8037C2.8241 13.8051 2.55067 13.5337 2.54935 13.1811ZM13.7571 1.88906C13.7558 1.53648 14.0272 1.26305 14.3798 1.26173C14.7324 1.26041 15.0058 1.5318 15.0071 1.88438C15.0084 2.23696 14.737 2.5104 14.3845 2.51172C14.0319 2.51304 13.7584 2.24164 13.7571 1.88906Z" fill="#3A3A3A" fill-opacity="0.5"/>
</svg>
