<svg width="20" height="20" viewBox="0 0 20 20" fill="none" xmlns="http://www.w3.org/2000/svg">
<path d="M18.5714 0C18.9503 0 19.3137 0.15051 19.5816 0.418419C19.8495 0.686328 20 1.04969 20 1.42857V18.5714C20 18.9503 19.8495 19.3137 19.5816 19.5816C19.3137 19.8495 18.9503 20 18.5714 20H1.42857C1.04969 20 0.686328 19.8495 0.418419 19.5816C0.15051 19.3137 0 18.9503 0 18.5714V1.42857C0 1.04969 0.15051 0.686328 0.418419 0.418419C0.686328 0.15051 1.04969 0 1.42857 0H18.5714ZM18.5714 1.42857H1.42857V12.5H1.56429C1.82857 12.4714 2.07857 12.3786 2.27857 12.2286L2.37857 12.15C2.90321 11.682 3.58266 11.4249 4.28571 11.4286C4.99286 11.4286 5.67857 11.6786 6.19286 12.1429C6.44286 12.3786 6.78571 12.5 7.14286 12.5C7.5 12.5 7.84286 12.3786 8.09286 12.1429C8.6182 11.6768 9.29777 11.4223 10 11.4286C10.7071 11.4286 11.3929 11.6786 11.9071 12.1429C12.1571 12.3786 12.5 12.5 12.8571 12.5C13.2143 12.5 13.5571 12.3786 13.8071 12.1429C14.3328 11.6774 15.0122 11.423 15.7143 11.4286C16.4214 11.4286 17.1 11.6786 17.6214 12.1429C17.8714 12.3786 18.2143 12.5 18.5714 12.5V13.9286H18.4071C17.7617 13.8966 17.1466 13.6445 16.6643 13.2143C16.4027 12.9818 16.0642 12.8546 15.7143 12.8571C15.3571 12.8571 15.0143 12.9786 14.7643 13.2143C14.2386 13.6797 13.5593 13.9342 12.8571 13.9286C12.155 13.9342 11.4757 13.6797 10.95 13.2143C10.6884 12.9818 10.3499 12.8546 10 12.8571C9.64286 12.8571 9.3 12.9786 9.05 13.2143C8.52431 13.6797 7.84497 13.9342 7.14286 13.9286C6.44075 13.9342 5.76141 13.6797 5.23571 13.2143C4.97414 12.9818 4.63566 12.8546 4.28571 12.8571C3.92857 12.8571 3.58571 12.9786 3.33571 13.2143C2.81002 13.6797 2.13068 13.9342 1.42857 13.9286V16.0714H1.56429C1.82857 16.0429 2.07857 15.95 2.27857 15.8L2.37857 15.7214C2.90321 15.2534 3.58266 14.9964 4.28571 15C4.99286 15 5.67857 15.25 6.19286 15.7143C6.44286 15.95 6.78571 16.0714 7.14286 16.0714C7.5 16.0714 7.84286 15.95 8.09286 15.7143C8.6182 15.2483 9.29777 14.9937 10 15C10.7071 15 11.3929 15.25 11.9071 15.7143C12.1571 15.95 12.5 16.0714 12.8571 16.0714C13.2143 16.0714 13.5571 15.95 13.8071 15.7143C14.3328 15.2488 15.0122 14.9944 15.7143 15C16.4214 15 17.1 15.25 17.6214 15.7143C17.8714 15.95 18.2143 16.0714 18.5714 16.0714V17.5H18.4071C17.7617 17.468 17.1466 17.2159 16.6643 16.7857C16.4027 16.5532 16.0642 16.426 15.7143 16.4286C15.3571 16.4286 15.0143 16.55 14.7643 16.7857C14.2386 17.2512 13.5593 17.5056 12.8571 17.5C12.155 17.5056 11.4757 17.2512 10.95 16.7857C10.6884 16.5532 10.3499 16.426 10 16.4286C9.64286 16.4286 9.3 16.55 9.05 16.7857C8.52431 17.2512 7.84497 17.5056 7.14286 17.5C6.44075 17.5056 5.76141 17.2512 5.23571 16.7857C4.97414 16.5532 4.63566 16.426 4.28571 16.4286C3.92857 16.4286 3.58571 16.55 3.33571 16.7857C2.81002 17.2512 2.13068 17.5056 1.42857 17.5V18.5714H18.5714V1.42857ZM14.2857 3.57143C14.854 3.57143 15.3991 3.79719 15.8009 4.19906C16.2028 4.60092 16.4286 5.14596 16.4286 5.71429C16.4286 6.28261 16.2028 6.82765 15.8009 7.22952C15.3991 7.63138 14.854 7.85714 14.2857 7.85714C13.7174 7.85714 13.1723 7.63138 12.7705 7.22952C12.3686 6.82765 12.1429 6.28261 12.1429 5.71429C12.1429 5.14596 12.3686 4.60092 12.7705 4.19906C13.1723 3.79719 13.7174 3.57143 14.2857 3.57143ZM14.2857 5C14.0963 5 13.9146 5.07525 13.7806 5.20921C13.6467 5.34316 13.5714 5.52485 13.5714 5.71429C13.5714 5.90373 13.6467 6.08541 13.7806 6.21936C13.9146 6.35332 14.0963 6.42857 14.2857 6.42857C14.4752 6.42857 14.6568 6.35332 14.7908 6.21936C14.9247 6.08541 15 5.90373 15 5.71429C15 5.52485 14.9247 5.34316 14.7908 5.20921C14.6568 5.07525 14.4752 5 14.2857 5Z" fill="#363C45"/>
</svg>
