<svg width="92" height="87" viewBox="0 0 92 87" fill="none" xmlns="http://www.w3.org/2000/svg">
<mask id="mask0_1064_28900" style="mask-type:luminance" maskUnits="userSpaceOnUse" x="50" y="8" width="33" height="55">
<path d="M50.3247 8.01172H82.6129V62.7868H50.3247V8.01172Z" fill="white"/>
</mask>
<g mask="url(#mask0_1064_28900)">
<path d="M60.9958 8.01172L50.3813 15.9557L55.7391 19.9685L60.9877 16.0394L76.2301 27.4941V62.7439H82.6129V24.2569L60.9958 8.01172Z" fill="#1779F3"/>
</g>
<path d="M43.3332 21.2314L41.2729 22.7745L46.6307 26.7853L48.693 25.2422L43.3332 21.2314Z" fill="#AA7422"/>
<path d="M34.4434 53.6074H28.0605V56.5629H34.4434V53.6074Z" fill="#AA7422"/>
<mask id="mask1_1064_28900" style="mask-type:luminance" maskUnits="userSpaceOnUse" x="4" y="7" width="66" height="34">
<path d="M4.97803 7.97656H69.7444V40.8873H4.97803V7.97656Z" fill="white"/>
</mask>
<g mask="url(#mask1_1064_28900)">
<path d="M36.3907 8.01172L4.97803 31.6212L8.78912 36.7913L36.3988 16.0394L53.9723 29.1963L69.3259 40.6877V32.6662L36.3907 8.01172Z" fill="#C3922E"/>
</g>
<mask id="mask2_1064_28900" style="mask-type:luminance" maskUnits="userSpaceOnUse" x="40" y="38" width="30" height="26">
<path d="M40.6929 38.9629H69.3478V63.0071H40.6929V38.9629Z" fill="white"/>
</mask>
<g mask="url(#mask2_1064_28900)">
<path d="M62.9406 56.5639H40.7393V63.0076H69.3255V43.7743L62.9406 38.9961V56.5639Z" fill="#C3922E"/>
</g>
<path d="M62.9404 35.9092V38.9953L69.3253 43.7736V40.6874L62.9404 35.9092Z" fill="#AA7422"/>
<mask id="mask3_1064_28900" style="mask-type:luminance" maskUnits="userSpaceOnUse" x="14" y="22" width="33" height="42">
<path d="M14.207 22.7578H46.6327V63.0063H14.207V22.7578Z" fill="white"/>
</mask>
<g mask="url(#mask3_1064_28900)">
<path d="M41.273 22.7744L28.0606 32.6656V56.5628H20.6567V27.871L14.2739 32.6676V63.0066H34.4434V35.9089L46.6308 26.7852L41.273 22.7744Z" fill="#C3922E"/>
</g>
<path d="M20.657 15.5469H14.2741L11.9248 18.9474L14.2741 17.4471V22.1641L20.657 17.3655V15.5469Z" fill="#C3922E"/>
<path d="M20.6567 19.835V17.3652L14.2739 22.1639V24.6336L20.6567 19.835Z" fill="#AA7422"/>
<path d="M27.4942 73.6523H24.3726V72.1582H32.3627V73.6523H29.2411V81.6697H27.4942V73.6523Z" fill="black"/>
<path d="M40.745 80.192V81.6697H33.6768V72.1582H40.559V73.6441H35.4317V76.1098H39.9767V77.563H35.4317V80.192H40.745Z" fill="black"/>
<path d="M48.861 81.6697L46.9362 78.8857C46.8553 78.8979 46.734 78.902 46.5723 78.902H44.4454V81.6697H42.6904V72.1582H46.5723C47.385 72.1582 48.0947 72.295 48.6992 72.5664C49.3078 72.8399 49.7748 73.2277 50.0983 73.7339C50.4218 74.2401 50.5835 74.8443 50.5835 75.5464C50.5835 76.2608 50.4076 76.8752 50.0579 77.3916C49.7121 77.91 49.2188 78.2938 48.5779 78.5428L50.7372 81.6697H48.861ZM48.8205 75.5464C48.8205 74.9382 48.6204 74.4687 48.2221 74.1422C47.8278 73.8156 47.2516 73.6523 46.4914 73.6523H44.4454V77.4406H46.4914C47.2516 77.4406 47.8278 77.2773 48.2221 76.9507C48.6204 76.6201 48.8205 76.1506 48.8205 75.5464Z" fill="black"/>
<path d="M58.6949 81.6697L56.7702 78.8857C56.6893 78.8979 56.568 78.902 56.4063 78.902H54.2793V81.6697H52.5244V72.1582H56.4063C57.219 72.1582 57.9287 72.295 58.5332 72.5664C59.1418 72.8399 59.6088 73.2277 59.9323 73.7339C60.2558 74.2401 60.4175 74.8443 60.4175 75.5464C60.4175 76.2608 60.2416 76.8752 59.8919 77.3916C59.5461 77.91 59.0528 78.2938 58.4119 78.5428L60.5712 81.6697H58.6949ZM58.6545 75.5464C58.6545 74.9382 58.4544 74.4687 58.0561 74.1422C57.6618 73.8156 57.0856 73.6523 56.3254 73.6523H54.2793V77.4406H56.3254C57.0856 77.4406 57.6618 77.2773 58.0561 76.9507C58.4544 76.6201 58.6545 76.1506 58.6545 75.5464Z" fill="black"/>
<path d="M68.4725 79.4654H63.7576L62.8357 81.6697H61.0322L65.2699 72.1582H66.9925L71.2464 81.6697H69.4106L68.4725 79.4654ZM67.8902 78.0856L66.1191 73.9299L64.3561 78.0856H67.8902Z" fill="black"/>
</svg>
