<svg width="24" height="24" viewBox="0 0 24 24" fill="none" xmlns="http://www.w3.org/2000/svg">
<path d="M12 14.9683C12.6176 14.9683 13.2099 15.2334 13.6466 15.7052C14.0833 16.177 14.3287 16.8169 14.3287 17.4841C14.3287 18.1514 14.0833 18.7913 13.6466 19.2631C13.2099 19.7349 12.6176 20 12 20C11.3824 20 10.7901 19.7349 10.3534 19.2631C9.91666 18.7913 9.67132 18.1514 9.67132 17.4841C9.67132 16.8169 9.91666 16.177 10.3534 15.7052C10.7901 15.2334 11.3824 14.9683 12 14.9683ZM12 16.3393C11.719 16.3393 11.4494 16.4599 11.2507 16.6746C11.052 16.8893 10.9404 17.1805 10.9404 17.4841C10.9404 17.7878 11.052 18.079 11.2507 18.2937C11.4494 18.5083 11.719 18.629 12 18.629C12.281 18.629 12.5506 18.5083 12.7493 18.2937C12.948 18.079 13.0596 17.7878 13.0596 17.4841C13.0596 17.1805 12.948 16.8893 12.7493 16.6746C12.5506 16.4599 12.281 16.3393 12 16.3393ZM12 11.3145C13.0585 11.3148 14.096 11.6329 14.9969 12.2333C15.8977 12.8337 16.6264 13.6928 17.1015 14.7147L16.1434 15.7498C15.8203 14.846 15.2516 14.069 14.5121 13.5211C13.7725 12.9731 12.8968 12.6798 12 12.6798C11.1032 12.6798 10.2275 12.9731 9.48792 13.5211C8.74837 14.069 8.17965 14.846 7.8566 15.7498L6.89848 14.7147C7.37361 13.6928 8.10227 12.8337 9.00312 12.2333C9.90396 11.6329 10.9415 11.3148 12 11.3145ZM12 7.66067C15.1599 7.66067 17.9454 9.40189 19.5761 12.048L18.6561 13.0351C17.9551 11.8091 16.9756 10.797 15.8106 10.0951C14.6456 9.39322 13.3339 9.02477 12 9.02477C10.6661 9.02477 9.35438 9.39322 8.1894 10.0951C7.02443 10.797 6.04492 11.8091 5.34391 13.0351L4.42386 12.0411C5.2534 10.6911 6.37939 9.5839 7.70135 8.81836C9.0233 8.05281 10.5001 7.65273 12 7.65381V7.66067ZM12 4C16.0926 4 19.7284 6.12511 22 9.4156L21.0926 10.4027C20.0563 8.84302 18.691 7.57232 17.1099 6.69579C15.5288 5.81925 13.7772 5.36207 12 5.36207C10.2228 5.36207 8.47124 5.81925 6.8901 6.69579C5.30895 7.57232 3.94372 8.84302 2.90736 10.4027L2 9.42245C4.27157 6.13196 7.90101 4.00686 12 4.00686V4Z" fill="#363C45"/>
</svg>
